<svg id="Layer_1" data-name="Layer 1" xmlns="http://www.w3.org/2000/svg" viewBox="0 0 790.84 477.98"><defs><style>.cls-1{fill:#f1ede2;}.cls-2{fill:#5e5c5e;}.cls-3{fill:#0099cd;}.cls-4{fill:#e37d5f;}</style></defs><title>Gråtekst_pa_offwhitebakgrunn</title><rect class="cls-1" width="790.84" height="477.98"/><path class="cls-2" d="M100.74,339.87a1.88,1.88,0,0,0-.62-.4,3.49,3.49,0,0,1-.77-.39,11.17,11.17,0,0,1-3.53-2.1,15.32,15.32,0,0,1-2.29-3.29,17.92,17.92,0,0,1-1.88-6.24,61,61,0,0,1-.34-6.5v-4.14c0-1.45.07-2.91.21-4.41a30.54,30.54,0,0,1,.69-4.33,11.74,11.74,0,0,1,1.59-3.81,7.56,7.56,0,0,0-3.88-1.05,14.9,14.9,0,0,0-7.7,2.17,39.93,39.93,0,0,0-6.45,4.67,68,68,0,0,0-9.22,10.46,70,70,0,0,0-6.94,12.05,68.32,68.32,0,0,0-4.37,13.1,61,61,0,0,0-1.53,13.49c0,1.66.1,3.77.28,6.31a30.2,30.2,0,0,0,1.46,7.37A18.38,18.38,0,0,0,58.78,379a7.27,7.27,0,0,0,5.89,2.56A15.06,15.06,0,0,0,71,379.75a38.3,38.3,0,0,0,7.08-4.47,33.12,33.12,0,0,0,5.76-5.78,9.67,9.67,0,0,0,2.35-5.72,7.55,7.55,0,0,0-.9-3.55L83.54,357l.28-.39a7.67,7.67,0,0,1,1.66.26,24.83,24.83,0,0,1,3.84,1.71,16.25,16.25,0,0,1,3.49,2.56,12.86,12.86,0,0,1,2.53,3.35,8.4,8.4,0,0,1,1,3.94,11,11,0,0,1-.83,4.14,20.24,20.24,0,0,1-2.15,3.94,26.88,26.88,0,0,1-2.9,3.55c-1.06,1.1-2.1,2.07-3.11,2.94a34.37,34.37,0,0,1-9.14,5.44,28.13,28.13,0,0,1-10.65,2.07,24.65,24.65,0,0,1-10.87-2.31,27.87,27.87,0,0,1-8.3-6,31.35,31.35,0,0,1-5.74-8.62,43.6,43.6,0,0,1-3.19-10,59.71,59.71,0,0,1-.83-10,61.82,61.82,0,0,1,2.08-15.59,70.28,70.28,0,0,1,6-15.26,67.67,67.67,0,0,1,9.43-13.49,55.27,55.27,0,0,1,12.49-10.4,39.93,39.93,0,0,1,5.34-2.56,15.85,15.85,0,0,1,5.89-1.12,34.07,34.07,0,0,1,9.44,1.27,25.33,25.33,0,0,1,8.46,4.34c1,.71,2,1.47,3,2.26a16.42,16.42,0,0,1,2.57,2.64c.27.44.6,1,1,1.64a3.57,3.57,0,0,1,.55,1.65,1.28,1.28,0,0,1-.14.65,53.58,53.58,0,0,0-2.42,9.6,63.22,63.22,0,0,0-.77,9.85,32.43,32.43,0,0,0,.21,3.68,32.43,32.43,0,0,1,.21,3.68A5.67,5.67,0,0,1,100.74,339.87ZM47.61,329.75a1.31,1.31,0,0,0,.62-.85,7.2,7.2,0,0,0,.07-1.12,5.9,5.9,0,0,0-.41,1C47.79,329.07,47.7,329.4,47.61,329.75Zm9.16-16.16a39.17,39.17,0,0,0-4.86,6.5,42.71,42.71,0,0,0-3.47,7.29A17.65,17.65,0,0,0,50.18,325c.87-1.35,1.8-2.8,2.77-4.33s1.85-3,2.64-4.4,1.27-2.32,1.45-2.76Zm-6.8,20h.14l.27-.39a.4.4,0,0,0-.27-.14A.72.72,0,0,0,50,333.56Zm.55-2,.42.13.42-1.31Zm.56,10.77c.18-.43.35-.83.48-1.18s.3-.74.49-1.18q1.38-3.94,2.84-7.23T58,326.53q1.66-3,3.61-5.91c1.29-2,2.78-4.1,4.44-6.38a1.19,1.19,0,0,0,.35-.65,2.23,2.23,0,0,1,.2-.66,50.77,50.77,0,0,0-10.12,13.6A61.43,61.43,0,0,0,51.08,342.36Zm1-13.27,6.66-11.69a5.76,5.76,0,0,0-1.6,1.64c-.69.92-1.38,1.95-2.08,3.09s-1.32,2.23-1.87,3.28a10,10,0,0,0-1,2.24,1.31,1.31,0,0,0-.07.72A1.41,1.41,0,0,1,52.05,329.09Zm2.77-2,.28-.26Zm2.92,3.81v.13l.14-.13Zm.55-.66a.12.12,0,0,0-.14-.13H58c0,.09.05.13.14.13Zm.14-.78.14.13v-.13Zm29,39.42c-.27.35-.53.7-.76,1A11.52,11.52,0,0,0,86,371v.26a2.66,2.66,0,0,1,.83-.92A1.64,1.64,0,0,0,87.42,368.91Zm.28-.66h-.14v.26A.36.36,0,0,0,87.7,368.25Zm.61,8.28a2.14,2.14,0,0,0,1.59-.86,9.19,9.19,0,0,0,1.32-1.9,12.42,12.42,0,0,0,.9-2.17,6.38,6.38,0,0,0,.35-1.77l-3.75,6.44Zm.19-4.21,1.11-1.44c-.46.09-.74.26-.83.52S88.59,372,88.5,372.32Zm1.42-2.1h-.28a.77.77,0,0,0,.14.53A.75.75,0,0,1,89.92,370.22Z" transform="translate(-0.58 -0.55)"/><path class="cls-2" d="M122.52,342.5A55.37,55.37,0,0,1,117,360.69a108.82,108.82,0,0,1-10.26,16.36q-1.26,1.57-2.64,3a13.67,13.67,0,0,1-3.33,2.49L95.88,381l.28-.4a30.87,30.87,0,0,0,3.19-3.48c.93-1.18,1.85-2.43,2.78-3.75A91.41,91.41,0,0,0,116,339.47c-1.3-.87-2.68-1.77-4.16-2.69a27.41,27.41,0,0,1-4.09-3.09,17.48,17.48,0,0,1-3.13-3.74,8.76,8.76,0,0,1-1.24-4.67,7.19,7.19,0,0,1,.55-2.69,8.65,8.65,0,0,1,1.6-2.56,8.55,8.55,0,0,1,2.35-1.91,5.86,5.86,0,0,1,2.85-.72,8,8,0,0,1,3.47.79,12.4,12.4,0,0,1,5.48,4.27,13.29,13.29,0,0,1,2.42,6.24c.19,1.49.35,2.93.49,4.33s.25,2.85.35,4.34c2.4,1.32,4.8,2.67,7.21,4.07a45.19,45.19,0,0,1,6.66,4.74,9.29,9.29,0,0,1,3.33,7.09,22.76,22.76,0,0,1-1.46,7.23q-1.45,4.2-2.57,7.22-1,2.64-2.15,5.85t-2.22,6.57q-1,3.36-1.8,6.64a26.74,26.74,0,0,0-.76,6,12.72,12.72,0,0,0,1,5.13l3.88.92-.14,1.05.14.13.7-.79h1.11a3.44,3.44,0,0,1,.41,1.58,2.08,2.08,0,0,1-.69,1.57,5.48,5.48,0,0,1-1.67,1.06,8,8,0,0,1-2,.52,14.47,14.47,0,0,1-1.87.13,10.35,10.35,0,0,1-5.76-1.57,13.28,13.28,0,0,1-4-3.95,16.73,16.73,0,0,1-2.22-5.25,24.31,24.31,0,0,1-.69-5.65,32.76,32.76,0,0,1,1-7.43q1-4.14,2.36-8.47t3-8.41q1.59-4.08,2.84-7.23a33.6,33.6,0,0,0,1.53-4.07,14.77,14.77,0,0,0,.83-4.08,3.79,3.79,0,0,0-2.22-3.54A43.34,43.34,0,0,0,122.52,342.5ZM106.9,321.34l-.84,1.18.28.27A4.65,4.65,0,0,1,106.9,321.34Zm-.06,52.43-.13.13h.13Zm1.07-6.83a1.44,1.44,0,0,0,.76-.86,10.81,10.81,0,0,0,.35-1.25Zm2-42.05a3.1,3.1,0,0,0,.35-1.05,4.7,4.7,0,0,1,.35-1.19,2.23,2.23,0,0,0-.83,1.58A1.47,1.47,0,0,0,109.87,324.89Zm6.27,9.33a5.33,5.33,0,0,1,.07-.86,6.63,6.63,0,0,0,.07-.85c0-.61,0-1.4-.14-2.37a29.17,29.17,0,0,0-.42-2.89,23.19,23.19,0,0,0-.69-2.76,5.91,5.91,0,0,0-1-2,5.62,5.62,0,0,0-2.22,4.47,8.15,8.15,0,0,0,1.18,4.14A7.85,7.85,0,0,0,116.14,334.22Zm3.61,12.22c-.1,0-.24.22-.42.65Q117.8,352,116,356.62c-1.2,3.11-2.55,6.2-4,9.26a15.59,15.59,0,0,0,2.36-3.74q1.25-2.56,2.42-5.52a50.33,50.33,0,0,0,1.94-5.78C119.21,349,119.56,347.49,119.75,346.44Zm-6.94,10.25a20.79,20.79,0,0,0,.9-1.91,16.92,16.92,0,0,0,.63-1.9l-.28.13Zm1.94-5.78a1.68,1.68,0,0,0-.41,1.7Zm.42-1.06-.14.4A.54.54,0,0,0,115.17,349.85Zm.27-.65h-.13a.72.72,0,0,1-.14.52A.74.74,0,0,0,115.44,349.2Zm.28-1.58.42-.53H116Zm.7-1.58-.14-.26v.4ZM120,345h-.14v.53H120Zm.28-1.44h-.14v.39h.14Zm9.85,11.69a6,6,0,0,0-1.11,2c-.28.79-.51,1.54-.69,2.24l-6.66,19.18-1.53,5.26a23.47,23.47,0,0,0,1.6-3.81c.41-1.32.85-2.63,1.31-3.95q1.82-5.25,3.68-10.38T130.15,355.24Zm-7.08,31.14h.28a.5.5,0,0,0-.07-.33s-.07-.15-.07-.32A1.39,1.39,0,0,0,123.07,386.38Zm9.16-28.9-6.8,18.92a40.91,40.91,0,0,0-1.11,4.46c-.27,1.5-.6,3-1,4.47l.28-.26c.65-2,1.22-4,1.73-6a61.25,61.25,0,0,1,1.88-6c.92-2.63,1.94-5.25,3-7.88a36.22,36.22,0,0,0,2.36-8.15Zm-6.66,34.16c.19-1,.35-1.89.49-2.76s.3-1.8.48-2.76a88.27,88.27,0,0,1,2.78-9.79c1.11-3.2,2.26-6.41,3.46-9.66l2.22-6a23.64,23.64,0,0,0,1.39-6.18h-.28q-2.49,6.71-4.78,13.41t-4.51,13.4a24.93,24.93,0,0,0-1,3.94,23.61,23.61,0,0,0-.35,4.07v1.19A6,6,0,0,0,125.57,391.64Zm.69-11.69v-.14l-.13.14Zm1.39-4.74.14-.13h-.14Zm.28-1,.14.13v-.13Zm.14,12.88v-.26h-.14A.4.4,0,0,0,128.07,387Zm.14-13.67.14.14v-.14Zm.14,12.09h-.14v.27h.14Zm.83-2.89h.14v-.39h-.14Zm.41-1.57h-.13v.39h.13Zm.56-12.88-.14.13h.14Zm0,11.17c-.09,0-.14.09-.14.26h.14Zm.28-24.84h-.14V355A.75.75,0,0,0,130.43,354.45Zm0,23.92-.14.13h.14Zm.27-1.18-.13.26.27.13A.51.51,0,0,0,130.7,377.19Zm.42-.92H131v.39h.14Zm.83-2.37v-.13h-.14C131.81,373.86,131.86,373.9,132,373.9Zm.28-11.43-.14.13h.14Zm0,10.51a.12.12,0,0,0-.14.13Zm.69-16.56h-.27v.4Zm-.14,15,.14-.13h-.14Zm.28-.78c.09,0,.14-.09.14-.27h-.14Zm.28-.92h.14v-.27h-.14Zm1.66-4.21h-.13v.26H135Zm.14-.66h.14v-.13h-.14Zm.28-1.05.14.13v-.13Zm1.94-5.12v-.13l-.14.13Z" transform="translate(-0.58 -0.55)"/><path class="cls-2" d="M173,352.88a11.72,11.72,0,0,1-2,6.57,19.35,19.35,0,0,1-5.1,5.19,26.77,26.77,0,0,1-6.75,3.41,21.71,21.71,0,0,1-7.1,1.25,4.82,4.82,0,0,0-.41,2.17v2.17c0,.35,0,.87.07,1.57a10.92,10.92,0,0,0,.34,2.11,6.82,6.82,0,0,0,.75,1.84A1.38,1.38,0,0,0,154,380a6,6,0,0,0,3.75-1.19,6.49,6.49,0,0,0,2.25-3l.14-.13V376a2.49,2.49,0,0,1-.62,1.65,4.69,4.69,0,0,0-.91,1.51,3.08,3.08,0,0,0,1.53-1.38,11.61,11.61,0,0,1,1.11-1.78,2.1,2.1,0,0,1,.28.66,1.61,1.61,0,0,1-.42,1.12,2.38,2.38,0,0,0-.55,1.11l1,.14-.14.39.28.13v-.13h.41l-.14-.26h.14l.14-.53h.14l.28-.53v.53a1.73,1.73,0,0,0,.55-1.31l.56-.66a6.19,6.19,0,0,1-2.64,4.6,8.76,8.76,0,0,1-5.27,1.71q-6.37,0-9.92-3.68a13.25,13.25,0,0,1-3.54-9.59,24.48,24.48,0,0,1,1.88-9.33A36.35,36.35,0,0,1,149,352a15,15,0,0,1,12.63-6.31,12.67,12.67,0,0,1,1.87.13,15.72,15.72,0,0,1,1.87.4l-2.77-4.87,1.11-.26a14.08,14.08,0,0,1,6.73,4.4A11.26,11.26,0,0,1,173,352.88Zm-25.52,6.17c-.1,0-.14.05-.14.13h.14Zm.69-2-.41.66.27.13Zm.14-.26-.14.13h.14Zm2.22-2.89c0-.18,0-.29.07-.33a.53.53,0,0,0,.07-.33l.41-.13a.56.56,0,0,0-.41.13l-.7,1.05-.27.4v.13a2.8,2.8,0,0,0-.49.59c-.14.22-.3.46-.49.72a1.73,1.73,0,0,0,1-1.31l.27-.53Zm-.28,9.2c-.09.08-.14.3-.14.65h.14Zm.42-5.79v0Zm.14,5a13.22,13.22,0,0,1,2.08-4.14,20.08,20.08,0,0,0,2.36-4.14,20.36,20.36,0,0,0-3,3.81A8.55,8.55,0,0,0,150.82,362.34Zm.55-6.57a1.13,1.13,0,0,0-.14.52A.72.72,0,0,0,151.37,355.77Zm.83-.79a.79.79,0,0,0-.2.33c-.05.13-.12.19-.21.19h.14A.72.72,0,0,0,152.2,355Zm13.46-4.47a13.2,13.2,0,0,0-4.44,1.91,17.71,17.71,0,0,0-3.67,3.22,18.86,18.86,0,0,0-2.71,4.07,17.39,17.39,0,0,0-1.53,4.34,8.83,8.83,0,0,0,4-1.58,22,22,0,0,0,4-3.35,21.48,21.48,0,0,0,3-4.08,8.14,8.14,0,0,0,1.25-4Zm-9.85,3.16c-.09,0-.23.08-.42.26l.56-.26v-.14Zm9,4.07a.69.69,0,0,0-.14.52l-.42.27.42-.13v-.14Zm.69-.79a2.1,2.1,0,0,0,.28-.66l-.28.53Zm.7-1.45c.18,0,.27-.08.27-.26h-.27Zm.83,5-.28.26Zm0-2.76h.14l.13-.4Zm.14,2.76a.61.61,0,0,0,.41-.13A.56.56,0,0,0,167.19,360.5Zm3.19-5c-.19.27-.42.62-.7,1.06s-.58.9-.9,1.38-.6.94-.83,1.37a2.56,2.56,0,0,0-.35.92,8.72,8.72,0,0,0,1.74-2.23A15.84,15.84,0,0,0,170.38,355.5Z" transform="translate(-0.58 -0.55)"/><path class="cls-2" d="M213.24,370.35a4,4,0,0,1,.7-1.11,9.32,9.32,0,0,0,.83-1.12,63.7,63.7,0,0,1-2.92,5.91q-1.8,3.29-3.95,6.51c-1.43,2.14-2.94,4.18-4.51,6.11a28.81,28.81,0,0,1-4.58,4.6,31.57,31.57,0,0,1-3.81-1.52c-1-.48-1.46-1.64-1.46-3.48a54.07,54.07,0,0,1,1-10.58q1-5.19,2.15-10.44l-4.71,4.6q-1.11,1.05-2.43,2.49a38,38,0,0,1-2.77,2.76,17.25,17.25,0,0,1-3.13,2.24,7.09,7.09,0,0,1-3.46.92,8.63,8.63,0,0,1-2.78-.53,11.5,11.5,0,0,1-2.84-1.44,8.64,8.64,0,0,1-2.15-2.11,4.41,4.41,0,0,1-.83-2.62,19.66,19.66,0,0,1,1.45-6.77,44.43,44.43,0,0,1,3.75-7.62,56.85,56.85,0,0,1,5-7,27.42,27.42,0,0,1,5.2-4.93,29.18,29.18,0,0,1,4.58-2.56,12.54,12.54,0,0,1,5.13-1.11,9.74,9.74,0,0,1,4.79,1.18,22.87,22.87,0,0,1,4.09,2.89,1.49,1.49,0,0,1,.56,1.05,2,2,0,0,1-.28.79l-4-1.05a18,18,0,0,0-6.59,3.68,35.42,35.42,0,0,0-5.14,5.58,44.74,44.74,0,0,0-4,6.57c-1.16,2.32-2.24,4.53-3.26,6.64l.28.26,2.22-1.58,13.32-11.3a12.5,12.5,0,0,0,2.77-3.35,6.15,6.15,0,0,1,3.33-2.69l.14,1.31-.42.13c-.18.27-.25.42-.21.46s-.06.2-.34.46l.41-.13.14-.66.42-.26a.88.88,0,0,1,.83-.52,1.12,1.12,0,0,1,.69.39l-.13.92.55-.26V352l.69.26q-.83,2.49-1.73,4.86c-.6,1.58-1.23,3.15-1.87,4.73l-.14.13c.09,0,.14,0,.14-.13.28-.26.41-.44.41-.52q1.11-2.24,2-4.41t2-4.27c.83.18,1.25.57,1.25,1.19a4.27,4.27,0,0,1-.21,1.31,13,13,0,0,1-.49,1.31l-2,5.39c-.88,2.37-1.76,4.84-2.64,7.43s-1.64,5-2.28,7.35a21.45,21.45,0,0,0-1,5.06,8.7,8.7,0,0,0,2.42-2,26.49,26.49,0,0,1,2.15-2.3h.28a45.37,45.37,0,0,1-3,3.54,14.41,14.41,0,0,0-2.57,3.82h-.14v.13a.12.12,0,0,0,.14-.13A41.17,41.17,0,0,0,204,380.8q1.67-2,3.33-4c.27-.35.55-.74.83-1.18a6.16,6.16,0,0,1,1-1.18l.69-.66a56,56,0,0,1-5.13,6.9,36.64,36.64,0,0,0-4.85,7l4.44-4.86L203,385.07l1-.66.14.53a2.81,2.81,0,0,1,.55-1.05,7.1,7.1,0,0,0,.7-1.05h.13v-.14l-.13.14h-.28a9.78,9.78,0,0,1,.55-1.32,3.44,3.44,0,0,1,1-1V381l.28-.53.42-.26.27-.53a4.12,4.12,0,0,1,.91-1.44,4.18,4.18,0,0,0,.9-1.45,6.51,6.51,0,0,1,.62-1,8.32,8.32,0,0,0,.63-1h-.14l.28-.53h-.14l.83-1.44.14.52a4.81,4.81,0,0,1,.34-.91,6,6,0,0,1,.49-.79h-.14l.42-.27a4.88,4.88,0,0,0,.55-1.18Zm-37-6.44a.24.24,0,0,1-.07.2.3.3,0,0,0-.06.2h.13Zm.42-1.05c.28-.26.42-.43.42-.52q1.38-2.23,2.63-4.47a43.63,43.63,0,0,1,2.78-4.34c.18-.26.5-.67,1-1.25a2.45,2.45,0,0,0,.69-1.37l-.28.52a17.4,17.4,0,0,0-1.8,2.17,38,38,0,0,0-2.15,3.28c-.69,1.19-1.34,2.33-1.94,3.42s-1,1.95-1.32,2.56a.87.87,0,0,0-.28.66Zm1.8,2.11.42-.92a.4.4,0,0,0-.28.39.74.74,0,0,1-.28.53Zm.28,6.17a.75.75,0,0,0-.14.53h.14Zm.56-1.18a80,80,0,0,1,4.64-9.86,50.74,50.74,0,0,1,6.31-8.93,11.12,11.12,0,0,0-3,2.76,45.66,45.66,0,0,0-3,4.27,50.16,50.16,0,0,0-2.57,4.53c-.74,1.49-1.29,2.72-1.66,3.68a15.26,15.26,0,0,0-.69,2.23c-.19.79-.38,1.54-.56,2.24A3,3,0,0,0,179.26,370Zm4.57-14.46q-1.38,1.85-2.49,3.55a29.59,29.59,0,0,0-2.08,3.81c.73-1.22,1.5-2.41,2.28-3.55s1.55-2.31,2.29-3.54Zm.7-5,.41-.26h-.14Zm1,3a.42.42,0,0,1-.28.14h.28Zm.55-.92a.12.12,0,0,0-.14.13h.14Zm13.74,23.52h.13v-.26h-.13Zm.55,12.36c-.19,0-.28.08-.28.26Zm0-15,.14.26v-.4Zm.14,14.84a3.7,3.7,0,0,1,.62-.46.76.76,0,0,0,.35-.72Zm.69-17.73a1.39,1.39,0,0,0-.13.65h.13Zm0-.53.28-.53h-.14Zm1.25-3.29a18.29,18.29,0,0,0-1,2.63,2.93,2.93,0,0,0,.69-1.31C202.24,367.68,202.33,367.24,202.42,366.8Zm-1,20.9c.09,0,.14,0,.14-.07s0-.06.14-.06S201.64,387.7,201.45,387.7Zm.83-1.05a1,1,0,0,1,.07-.4.82.82,0,0,0,.07-.39l-.83,1.18Zm1.11-33.25a3.94,3.94,0,0,0-1.11,2Zm-1,33.12.14-.14A.13.13,0,0,1,202.42,386.52Zm.28-20.77a.54.54,0,0,0-.14.4Zm.42,20.5c-.1,0-.14,0-.14.07s0,.06-.14.06h.28Zm0-21.81c-.1.09-.14.31-.14.66l.14-.27Zm1,20.63H204l-.42.26h.14Zm1.11-30.62c-.47.18-.7.4-.7.66v.13a.36.36,0,0,0,.14.26Zm.14-.78a1.28,1.28,0,0,0-.14.65A1.39,1.39,0,0,0,205.34,353.67Zm1.1,28c.1-.08.14-.26.14-.52A.74.74,0,0,0,206.44,381.65Z" transform="translate(-0.58 -0.55)"/><path class="cls-2" d="M258.74,323.57a1,1,0,0,0,.63,1.06,6.86,6.86,0,0,0,1.31.39,8.85,8.85,0,0,1-3.88,2.36,40.62,40.62,0,0,1-5.69,1.52c-2,.39-4.07.72-6.1,1s-3.66.48-4.86.66A220,220,0,0,0,234,353.93q-2.43,11.82-4.51,23.78c-.74,4.21-1.34,8.45-1.8,12.75a120.63,120.63,0,0,0-.69,12.87,38.67,38.67,0,0,0,.34,5.19,37.84,37.84,0,0,0,1,5.06,3.37,3.37,0,0,1,.14,1.05,1.27,1.27,0,0,1-1,1.25,6,6,0,0,1-1.75.33c-.28,0-.51-.22-.7-.66l-.84,1.19a11.7,11.7,0,0,0-2.59-1,12.06,12.06,0,0,1-2.6-1,6.48,6.48,0,0,1-3-2.89,16,16,0,0,1-1.54-4.34,27.25,27.25,0,0,1-.56-4.73c-.05-1.58-.07-2.94-.07-4.07a171.63,171.63,0,0,1,1.27-20.83q1.26-10.46,3-20.7c.28-1.57.52-3.17.71-4.79a43,43,0,0,1,.84-4.8q.57-2.76,1.2-5.52t1.06-5.52a13.41,13.41,0,0,1,.35-1.31,4.33,4.33,0,0,0,.21-1.32c0-.34-.23-.54-.7-.59s-.78-.06-1-.06c-.74,0-1.45,0-2.15.06s-1.41.07-2.15.07l.14-.13a6.63,6.63,0,0,1-2.29-1.12,8.89,8.89,0,0,1-1.87-1.77l.14-.79L211.3,329a5.18,5.18,0,0,1,.55-1.44,2.43,2.43,0,0,1,1.39-.66,30.33,30.33,0,0,1,4.65-.92,44.32,44.32,0,0,0,4.65-.79q2.36-2.89,4.3-5.85a45.57,45.57,0,0,0,3.47-6.37,34.23,34.23,0,0,1,2.63-5.06c1-1.62,2-3.22,3.05-4.79a8.62,8.62,0,0,1,.9-1.19,1.9,1.9,0,0,1,1.46-.52l1.66.79-1,2.1a10.34,10.34,0,0,0,1.11-1.18c.28-.35.6-.75,1-1.19l.56.79,1.11-.13-.69,1.84,1.11-.92,1.52.53v1.31l1.11-.26c.46.35.95.7,1.46,1.05a1.65,1.65,0,0,1,.76,1.44,16.45,16.45,0,0,1-.76,2.43q-.77,2.17-1.74,4.8l-2.49,6.83a5.8,5.8,0,0,1,1.52-.06,3.49,3.49,0,0,0,1.53-.2,21,21,0,0,1,3.54-.46c1.15,0,2.38-.07,3.67-.07a6.63,6.63,0,0,1,3.12.53A9.88,9.88,0,0,1,258.74,323.57Zm-41,61.5h-.14v1.71h.14Zm.56-5.52h-.14v1.58h.14Zm.45-2.23c.18-1.75.42-3.55.69-5.39s.56-3.63.86-5.39l-.44-.13-1.39,10.91Zm1.69-12q1.51-8.28,2.91-16.43t3.6-16.29a20.76,20.76,0,0,0-1.13,3.09q-.71,2.29-1.49,5.52c-.52,2.14-1,4.44-1.49,6.9s-.89,4.79-1.27,7-.68,4.2-.92,5.91a29.63,29.63,0,0,0-.35,3.61Zm.27,25.23-.14-1.32-.13,1.32Zm-.14-3.29h.14V387h-.14Zm.7-5.25h-.14l-.14,2.49h.14Zm.41-3.16h-.27v1.84h.14Zm9.16-47a16.61,16.61,0,0,0-1.46,4q-.9,3.22-1.94,7.75t-2,9.79c-.65,3.51-1.23,6.81-1.74,9.92s-.92,5.9-1.24,8.35a45.42,45.42,0,0,0-.49,5l-.14.66q1.11-5.79,2-11.44t2-11.3q1.09-5.77,2.42-11.36T230.86,331.85Zm-7.77,73.06a293.6,293.6,0,0,1,4-37.12q3.19-18.33,8.19-36.46l-1.25.13a146.4,146.4,0,0,0-4.3,16.49q-1.67,8.34-3.19,16.62-1.4,8.55-2.57,17.08a126.76,126.76,0,0,0-1.18,17.22v3A15.56,15.56,0,0,0,223.09,404.91ZM225.31,324c-.37,0-.55.17-.55.52v.27Zm.28,67.67h-.14V392h.14Zm.55-3.55v-.66a1,1,0,0,0-.14.66Zm.42-4.33v-.4h-.14v.4Zm.55-3.55H227v.52h.13Zm.42-2.76h-.14V378Zm.28-2a.72.72,0,0,1-.14-.53h-.14a.77.77,0,0,0,.14.53Zm.27-3.16H228v.92h.13Zm.42-2.23h-.14v.53h.14Zm.14-23.26v.4h.14v-.4Zm.28,21.68v-1.05h-.14v1.05Zm.14-23.39a1.4,1.4,0,0,1-.14.66h.14l.13-.66Zm.27,21.16v-.79h-.27v.79Zm0-22.21h.14v-.26Zm.42,20.11a1.43,1.43,0,0,0-.14-.66h-.14v.66Zm0-22.08v.4h.14v-.4Zm.28,19.84v-.52h-.14v.52Zm.41-1.57v-.92h-.13l-.14.92Zm.14-21.16-.27.4h.27Zm0-17.48a.13.13,0,0,0-.14.14Zm.28,36.67a1.77,1.77,0,0,0-.14-.79h-.14v.79ZM230.72,338l.14.13.28-.53Zm.42,17.61H231v1.05h.14Zm.14-.92a.43.43,0,0,0,.27.13v-.92h-.14Zm.13-18.66.28-.66-.28-.13Zm.42,16.16h-.14v.92h.14Zm0-18.13v.26a.4.4,0,0,0,.14-.26Zm.42,17.21v-.79h-.14v.79Zm.41-2.37-.27.66.27.13Zm.56-1.57c-.37,0-.56.17-.56.52,0,.18,0,.29.07.33a.5.5,0,0,1,.07.33Zm.41-1.45c-.37.18-.55.4-.55.66s0,.28.07.33a.53.53,0,0,1,.07.33ZM235,319.37a3.42,3.42,0,0,0-1,1.77q-.21,1-.48,2a3.46,3.46,0,0,0,1-1.77Q234.74,320.42,235,319.37ZM233.5,344.6a3.91,3.91,0,0,0,.13,1.18,3.47,3.47,0,0,1,.07-.59,2.68,2.68,0,0,0,.07-.59Zm.55-.79v-.66a2.1,2.1,0,0,0-.28.66Zm.14-1.45a.54.54,0,0,0-.14.4l.14-.13Zm.42-1.31a.49.49,0,0,0-.14.39Zm.27-1.18-.14.13a1.81,1.81,0,0,1-.07.52,2.46,2.46,0,0,0-.06.53l.27-1.05Zm0,0a8.11,8.11,0,0,0,.7-2.11,1.41,1.41,0,0,0-.63.93A8.42,8.42,0,0,0,234.88,339.87Zm.14-20.5c0-.09,0-.13.07-.13s.07-.05.07-.13A.36.36,0,0,0,235,319.37Zm.69,18.26c.19-.87.37-1.62.56-2.23a2,2,0,0,0-.69,1.45A1.74,1.74,0,0,0,235.71,337.63Zm-.13.13h.13v-.13Zm.41-28.38c0,.09,0,.13-.07.13s-.07.05-.07.14A.4.4,0,0,0,236,309.38Zm0-.26a.84.84,0,0,0,.28-.66Zm.28-.66.28-.52A.76.76,0,0,1,236.27,308.46Zm.42,25a1.24,1.24,0,0,0-.28.72,2.23,2.23,0,0,1-.14.72l.42-.92Zm.13-.92c.37-.09.56-.39.56-.92v-.53Zm1.67-10.91q1.11-2.62,1.94-5.19c.56-1.71,1.2-3.43,1.94-5.19a3.31,3.31,0,0,1-.69.92,4.87,4.87,0,0,0-.69.79,12.55,12.55,0,0,0-.91,1.84c-.41,1-.85,2-1.31,3.09s-.86,2.1-1.18,3a7.26,7.26,0,0,0-.49,1.77h.28Q238.21,322.65,238.49,321.6Zm-.83-15a.74.74,0,0,0,.27-.52A.74.74,0,0,0,237.66,306.62Zm.14,5.78.41-.26h-.41Zm.83-7.75a3.77,3.77,0,0,0-.42.72c-.09.22-.19.47-.28.73l.7-1.19Z" transform="translate(-0.58 -0.55)"/><path class="cls-2" d="M271.92,356.56,273,355.5l-.14.79.42-.79H273l.28-.39v.39l.27-.52h.14l.56-.92.28.13a51.82,51.82,0,0,1-4.79,8.8q-2.85,4.22-5.62,8.41c-1,1.58-2,3.18-3,4.8s-2.08,3.18-3.19,4.66q-2.09,2.89-5.06,6.64t-5.34,6.24a2.94,2.94,0,0,1-1.32.79,7,7,0,0,1-1.46.13,7.87,7.87,0,0,1-5-1.51,5.38,5.38,0,0,1-1.94-4.53,54.85,54.85,0,0,1,1.1-10.84q1.11-5.46,2.64-10.45,1.11-3.94,2.08-7.88a47,47,0,0,0,1.25-8v-.52a2.38,2.38,0,0,0-.21-1,2.34,2.34,0,0,1-.21-1c0-.26.16-.46.49-.59s.58-.24.76-.33a17.29,17.29,0,0,1,7.84,3c2.17,1.57,3.26,3.94,3.26,7.09a23.28,23.28,0,0,1-1.11,7.23q-1.11,3.42-2.22,7l-3.05,9.73c0,.09,0,.13-.07.13s-.07,0-.07.13v.13l.14.26a84.1,84.1,0,0,0,5.48-7.16q2.57-3.74,5.2-7.42a39,39,0,0,1,3.33-4.21q1.8-2,3.47-4.07a13.93,13.93,0,0,0,1.73-2.36,10.46,10.46,0,0,1,1.87-2.37l-.69,1.18,1-1.05c-1.11,1.76-2.29,3.48-3.54,5.19a36,36,0,0,0-3.26,5.45c.47-.52.93-1.05,1.39-1.57a12.5,12.5,0,0,0,1.25-1.71,33.42,33.42,0,0,0,2-3.55,11.38,11.38,0,0,1,2.43-3.28Zm-27.47,32.58h.28q1.53-5.77,3.26-11.43c1.16-3.76,2.29-7.58,3.4-11.43a15.65,15.65,0,0,0-1.8,4.4c-.37,1.53-.79,3.05-1.25,4.53q-1.11,3.42-2.22,6.9A47.2,47.2,0,0,0,244.45,389.14Zm9.71-60.7.7.13v.92a2.77,2.77,0,0,0,1-.66l1.39.66-.28.92,1.66.26V332l.7-.13a2.67,2.67,0,0,1,1.38,2.24,13.55,13.55,0,0,1-.76,4.53,13.51,13.51,0,0,0-.76,4.53,12.31,12.31,0,0,0,.28,2.63,13,13,0,0,1,.27,2.63,2.6,2.6,0,0,1-1.25.39,2.41,2.41,0,0,1-1.31-.39,1.78,1.78,0,0,0-1.32-.26,7.74,7.74,0,0,1-2.36-2,20.85,20.85,0,0,1-2-3,17.13,17.13,0,0,1-1.39-3.29,11,11,0,0,1-.48-3.09,13.19,13.19,0,0,1,.27-2.23,17.5,17.5,0,0,1,.84-2.89A12.29,12.29,0,0,1,252,329a2.13,2.13,0,0,1,1.74-1.12Zm-4.43,56.76a7.89,7.89,0,0,1,.69-.59c.28-.22.51-.42.69-.59q4.17-5.91,8.33-11.63l8.46-11.63-3.33,3.42a19.89,19.89,0,0,0-2.78,3.54q-1.8,2.76-3.67,5.46t-3.68,5.45a28.58,28.58,0,0,1-2.43,3.22A17,17,0,0,0,249.73,385.2Zm2.08-20.37h-.28v.79a.42.42,0,0,0,.14-.33A1,1,0,0,1,251.81,364.83Zm4.43,14.85a1.1,1.1,0,0,0-.76.53c-.14.26-.3.52-.48.79Zm1.81-2.23c-.93.17-1.39.57-1.39,1.18v.26Zm3.88-5.13.56-.39c.18-.35.37-.68.55-1a8.14,8.14,0,0,0,.56-1.11,4.91,4.91,0,0,1-.77,1.24C262.51,371.47,262.21,371.89,261.93,372.32Zm3.61-4.2.42-.4a.57.57,0,0,1-.42-.13c.18-.35.35-.67.48-1s.3-.64.49-1l-1.66,2.24.69-.27Zm2.91-4.6h-.27l.41-.66v-.52a10.08,10.08,0,0,0-1.25,2l.56-.26.28-.53a.75.75,0,0,1,.13.53A.72.72,0,0,0,268.45,363.52Zm-.55.92.41-.39H268A.47.47,0,0,0,267.9,364.44Zm.83-1.45h-.14v.27A.4.4,0,0,0,268.73,363Zm1-1.7a1.9,1.9,0,0,1,.14-.73,1.85,1.85,0,0,0,.14-.72l-1.25,2.23.55-.26v.4l.28-.4h-.28Zm0,0v.39l.28-.39a.7.7,0,0,1,.14-.53H270v.53Zm2.22-4.73a1.51,1.51,0,0,1-.55,1.05l.55-.13.14-.53Zm.42.78-.28.14-.14.39Zm-.28-1.57a9.57,9.57,0,0,0,.42-.92c.09-.27.18-.57.27-.92l.28.13A4.65,4.65,0,0,1,272.06,355.77Zm1.39-.79v-.13h-.14v.26Zm.13-.53v.4h-.13Zm.14.4h-.14V355Z" transform="translate(-0.58 -0.55)"/><path class="cls-2" d="M271.92,387.43a8.36,8.36,0,0,1-5.62-2.23,6.77,6.77,0,0,1-2.56-5.25,35.83,35.83,0,0,1,.77-6.64q.76-4,2-8.28c.8-2.84,1.59-5.6,2.39-8.28s1.48-4.93,2-6.76c.57-1.67,1.11-3.44,1.62-5.33a20.43,20.43,0,0,0,.78-5.45,3.53,3.53,0,0,0-.14-1c-.1-.3-.19-.63-.28-1,.18-.44.64-.66,1.37-.66a2.78,2.78,0,0,1,1,.33l.95.46a10,10,0,0,1,4,3.55,9.13,9.13,0,0,1,1.57,5.12,34.9,34.9,0,0,1-.9,7.1c-.61,2.8-1.32,5.67-2.15,8.61s-1.74,5.8-2.71,8.6-1.78,5.17-2.43,7.1l.28.13q5.83-7.62,11.52-15.18t12.2-14.65l5-5.52q2.49-2.76,5.13-5.38c.55-.53,1.11-1,1.66-1.52a4.56,4.56,0,0,1,1.95-1,10.27,10.27,0,0,1,2.29.66,13.29,13.29,0,0,1,2.56,1.38,10.47,10.47,0,0,1,2.08,1.83,3.28,3.28,0,0,1,.83,2.17,7,7,0,0,1-.34,1.84c-.23.79-.51,1.65-.83,2.56s-.65,1.8-1,2.63-.57,1.47-.76,1.91q-1.38,3.42-3.74,9.59t-4.58,12.88q-2.22,6.7-3.82,12.81a40.42,40.42,0,0,0-1.59,9.4,3.31,3.31,0,0,0,1.66,3.15c0,.87-.46,1.31-1.38,1.31a9.71,9.71,0,0,1-4.79-1.05A7.59,7.59,0,0,1,295,394.6a11.17,11.17,0,0,1-1.39-4,30.08,30.08,0,0,1-.35-4.6,34.39,34.39,0,0,1,.7-6.7c.46-2.37,1-4.75,1.73-7.16s1.46-4.8,2.29-7.16,1.57-4.56,2.22-6.57a55.16,55.16,0,0,1,2.22-5.79q1.24-2.76,2.36-5.65a1.92,1.92,0,0,1-.63.4,1.91,1.91,0,0,0-.62.39,82.18,82.18,0,0,0-8.46,9.66q-3.88,5.19-7.36,10.45l-2.84,4.4c-1.16,1.79-2.38,3.63-3.68,5.52s-2.56,3.63-3.81,5.25a25.14,25.14,0,0,1-3.26,3.62A3.46,3.46,0,0,1,271.92,387.43Zm4.3-6,.28-.53A.75.75,0,0,0,276.22,381.39Zm4.58-10.77a7.52,7.52,0,0,0-1.18,1.38c-.33.48-.63.94-.9,1.37a6.07,6.07,0,0,0,1.11-1.37A8.6,8.6,0,0,1,280.8,370.62Zm-1.11,6.17.55-.66c.09-.17.19-.32.28-.46s.18-.28.28-.46a5.63,5.63,0,0,0-.63.73A3.26,3.26,0,0,0,279.69,376.79Zm.83-2.5-.14.14A.13.13,0,0,0,280.52,374.29Zm1.53-5.25a2.2,2.2,0,0,1,.62-.92,4.47,4.47,0,0,0,.76-.79,14.16,14.16,0,0,0,1.46-1.9c.42-.66.85-1.34,1.32-2a98.32,98.32,0,0,1,10.4-12.48q5.68-5.79,11-12.09l.42-.53-.28-.26q-5.28,5.39-10.34,10.9a138.71,138.71,0,0,0-9.5,11.57q-1.67,2.24-3.4,4.47a28.48,28.48,0,0,0-3,4.73Zm-.28,3.68v-.13l-.14.13Zm.28.65a18.9,18.9,0,0,0,1.24-1.57q.56-.8,1.11-1.71A14.51,14.51,0,0,0,282.05,373.37Zm2.08-4.73h-.42a.72.72,0,0,1-.28.53h.7l.14-.39Zm2.08-1.44a11.32,11.32,0,0,1-1,1.31,4.7,4.7,0,0,0-.84,1.45A10.41,10.41,0,0,0,286.21,367.2Zm-1.25.39-.28-.13v.4a.53.53,0,0,0,.14.39.75.75,0,0,0,.14-.53h.55A.86.86,0,0,0,285,367.59Zm-.28,3.29v.26l.14-.13Zm.83-4.21h-.27v.27a.49.49,0,0,0,.14.39v.26c0,.09,0,.13.13.13v-.78a.57.57,0,0,0,.42-.14h-.28C285.56,366.8,285.51,366.76,285.51,366.67Zm.7-.79-.28-.13v.4a.72.72,0,0,0,.14.52c0-.43.18-.65.55-.65A.56.56,0,0,0,286.21,365.88Zm.41-.91h-.13v.26a1.79,1.79,0,0,1,.13.79,1.67,1.67,0,0,0,.14-.79l.28-.13h-.28A.12.12,0,0,1,286.62,365Zm.56,1.18.14-.53-.42.79Zm6.52-8.28.55-.79h.28l.7-.66a9,9,0,0,1,.83-1.11,13.48,13.48,0,0,1,1-1.12q.14-.26.69-1.05a13.16,13.16,0,0,1,1.32-1.58l1.46-1.51a4.49,4.49,0,0,1,1-.85l-.28-.13v-.53c-.74.79-1.46,1.58-2.15,2.37a12.09,12.09,0,0,1-2.43,2.1,14.73,14.73,0,0,1,1.53-2c.83-1,1.73-2,2.7-3.09s1.92-2.15,2.85-3.16,1.57-1.72,1.94-2.16a137.88,137.88,0,0,0-9.85,10.31q-4.57,5.32-8.74,11.11v.39l.14.53a29.44,29.44,0,0,1,1.8-2.44c.56-.65,1.2-1.42,1.94-2.3a9.78,9.78,0,0,1-.55,1.32l1-.53h.28c.28-.35.53-.67.76-1a5.58,5.58,0,0,0,.63-1.12l.41-.26A1.47,1.47,0,0,1,294,358Zm-4.3,5-1.11,1.58a3.13,3.13,0,0,1,.83-.53v-.13A1.21,1.21,0,0,0,289.4,362.86Zm0,.92-.14.13v.27A.54.54,0,0,0,289.4,363.78Zm11,21.68h.14v-.39h-.14Zm1.11-4.6-1,3.29.41.13a8.39,8.39,0,0,0,.35-1.71Q301.32,381.79,301.47,380.86Zm15-40.2-.42-.14q-2.22,4.22-4.3,9.27t-4,10.38q-1.87,5.32-3.47,10.64t-2.84,9.79a3,3,0,0,0,.55-.79,80.37,80.37,0,0,0,3.05-9.06q1.26-4.61,2.92-9.07,1.93-5.39,4.23-10.51T316.45,340.66Zm-13.73,7a6.09,6.09,0,0,0,.69-.79,2,2,0,0,1,.83-.65,2.08,2.08,0,0,1,.69-.79,1,1,0,0,0,.42-.92l1.53-2-5.41,5.65a2.12,2.12,0,0,1,.55-.4A1.78,1.78,0,0,1,302.72,347.62Zm2.21,6.05.14-.14h-.14Zm1-2.5c0,.09,0,.13-.07.13s-.07,0-.07.13h.14Zm.55-1.71-.41.92.41.13Zm0,0,.42-.26c.64-1.32,1.32-2.63,2-3.95s1.41-2.62,2.15-3.94v-.65a32.48,32.48,0,0,0-2.43,4.33Q307.58,347.23,306.46,349.46ZM312.7,343a17.08,17.08,0,0,0-1.18,2.1c-.32.71-.62,1.45-.9,2.24.37-.7.74-1.43,1.11-2.17S312.43,343.72,312.7,343Zm1-2.1-.13-.13v.52Z" transform="translate(-0.58 -0.55)"/><path class="cls-2" d="M344.89,372.59a37.71,37.71,0,0,0-3.26,2.89c-1.07,1-2.15,2.06-3.26,3a18.13,18.13,0,0,1-3.61,2.43,9.35,9.35,0,0,1-4.3,1,12,12,0,0,1-4.79-1,13.71,13.71,0,0,1-4-2.63,12.61,12.61,0,0,1-2.77-3.81,10.22,10.22,0,0,1-1-4.53,26,26,0,0,1,1.8-9.13A32.23,32.23,0,0,1,324.7,352a29,29,0,0,1,7.56-6.71,17.54,17.54,0,0,1,9.3-2.62,17.22,17.22,0,0,1,8.32,2.1,18.86,18.86,0,0,1,6.38,5.52,2.47,2.47,0,0,1,.56,1.18,2.44,2.44,0,0,1-.14.79c-.1.26-.19.52-.28.79-.46-.27-1-.59-1.66-1s-1.32-.79-2-1.18-1.38-.74-2.08-1a4.42,4.42,0,0,0-1.73-.46,15.38,15.38,0,0,0-8.6,2.63,26.9,26.9,0,0,0-6.94,6.57,33.33,33.33,0,0,0-4.58,8.54,25.16,25.16,0,0,0-1.66,8.54,1.81,1.81,0,0,0,.07.52,2,2,0,0,1,.07.53H328a3.53,3.53,0,0,0,1.53-.33c.46-.22.92-.46,1.39-.72a29.3,29.3,0,0,0,9.71-9.33q1.25-1.84,2.49-3.94a13.15,13.15,0,0,1,3.05-3.55l5.42,3a3.39,3.39,0,0,1,1.94,3.16,133.92,133.92,0,0,1-.9,15.57,83.27,83.27,0,0,1-3.26,15.17,138.9,138.9,0,0,1-7.63,18.6,63.41,63.41,0,0,1-11.93,16.36q-1.53,1.44-3.33,2.89a29.39,29.39,0,0,1-3.89,2.62,27.33,27.33,0,0,1-4.3,2,13.32,13.32,0,0,1-4.44.78,12.17,12.17,0,0,1-3.6-.59,12.35,12.35,0,0,1-3.47-1.64,10.36,10.36,0,0,1-2.57-2.5,5.5,5.5,0,0,1-1-3.28,24.93,24.93,0,0,1,2.22-9.4,79.42,79.42,0,0,1,5.55-10.77A103.56,103.56,0,0,1,318,400.57a88.81,88.81,0,0,1,6.66-7.62,65,65,0,0,1,6.25-5.45,37.79,37.79,0,0,1,7.21-4.27l.55,1a6.81,6.81,0,0,1,1.81.79,2.55,2.55,0,0,1,1.11,1.45,17.22,17.22,0,0,0,2.36-6.71Q344.61,375.61,344.89,372.59ZM307.5,422a3.13,3.13,0,0,0,.83-1.7l4.72-8.94a9.34,9.34,0,0,0-1.11,1.71c-.56,1-1.16,2.05-1.81,3.28s-1.22,2.39-1.73,3.49A16.43,16.43,0,0,0,307.5,422Zm1.74,7.89h.27v-.66Zm11.36-22.74q-2.12,3.56-4.3,7.1c-1.45,2.37-2.84,4.77-4.15,7.23a20.2,20.2,0,0,0-1.51,3.74q-.54,1.91-1.23,3.75a9,9,0,0,0,1.78-3.22c.37-1.18.78-2.35,1.24-3.48q1.41-3,3.1-5.92c1.12-1.92,2.3-3.85,3.52-5.78.47-.7.89-1.38,1.27-2s.75-1.33,1.12-2Zm20.82-17.6a40.11,40.11,0,0,0-5.48,4.6q-3.12,3-6.45,6.83T323,409.12q-3.2,4.33-5.69,8.54a64.76,64.76,0,0,0-4.09,8,17.61,17.61,0,0,0-1.6,6.57H312l1-.39a36.15,36.15,0,0,0,9.85-7.82,71.51,71.51,0,0,0,8-10.77A95.52,95.52,0,0,0,337,401.17C338.73,397,340.22,393.13,341.42,389.54Zm-29.13,27.72.27-.26A.24.24,0,0,0,312.29,417.26Zm10.26-19.18-.14.13A.12.12,0,0,0,322.55,398.08Zm1.67-41.39A3.31,3.31,0,0,0,325,356a13.6,13.6,0,0,0,1-1.18c.32-.44.63-.88.9-1.32s.46-.74.56-.92c-.56.62-1.11,1.27-1.67,2S324.68,356,324.22,356.69Zm1.52,8.93.28.13a.74.74,0,0,1,.14-.52Zm.7-1.57c.46-.7.85-1.34,1.18-1.91s.67-1.2,1-1.91a22.48,22.48,0,0,1,2.7-4,42.28,42.28,0,0,1,3.26-3.49,1.39,1.39,0,0,0-1,.4,22.64,22.64,0,0,0-4.58,4.93A16.85,16.85,0,0,0,326.44,364.05Zm.55,35.21c.09,0,.14,0,.14-.13ZM330.46,350h-.14l-.28.39Zm-.14,3.41-.14-.13v.4Zm15.95,42.44a2.87,2.87,0,0,0-.55,1.06,109.91,109.91,0,0,1-10.82,22.33c-.65,1-1.32,1.95-2,3a19.09,19.09,0,0,0-1.74,3.09,52.12,52.12,0,0,0,7.63-10.71,81.35,81.35,0,0,0,5.41-12,20,20,0,0,0,1-3.35A19.87,19.87,0,0,1,346.27,395.84Zm-9.85,12.09c-.92,1.49-1.82,3-2.7,4.6s-1.73,3.16-2.57,4.73a21.89,21.89,0,0,0,2.92-4.53Q335.31,410.17,336.42,407.93Zm-4.71,12.62h.14v-.26C331.75,420.29,331.71,420.37,331.71,420.55Zm1.66-2.37a.85.85,0,0,0,.56-.26Zm3.47-10.9a.75.75,0,0,1,.14-.53,2.88,2.88,0,0,0-.56,1.05Zm6.1-41.26-4.3,5.25c.74-.87,1.46-1.73,2.15-2.56S342.2,367,342.94,366Zm-4.16,9.72v.13a.85.85,0,0,0,.56-.13Zm.56,0,1.66-2.23c-.37.26-.74.54-1.11.85a1.4,1.4,0,0,0-.55,1.12Zm1.38,23L341,398A2,2,0,0,0,340.72,398.74Zm.84-2.63.14-.13h-.14Zm.27,14.58H342v-.13Zm.7-38.89a3.56,3.56,0,0,0,1.52-1.84A9.13,9.13,0,0,0,342.53,371.8Zm.28,20.89h-.14v.13Zm.13-20,.28-.26-.41.26Zm.56-3.16h-.14c0,.09,0,.14-.07.14s-.07,0-.07.13Zm2.08-7.22-.28-.13L343.64,365a11.51,11.51,0,0,1,1.11-1.45A4.5,4.5,0,0,0,345.58,362.34Zm-.69,5.38-.14.14a.4.4,0,0,0,.27-.14Zm2.22,26h-.42l-.28,1.71A7.4,7.4,0,0,0,347.11,393.74Zm0-1.05h.41V392Zm.41-.79a.44.44,0,0,0,.14-.33.42.42,0,0,1,.14-.32l-.28-.14Z" transform="translate(-0.58 -0.55)"/><path class="cls-2" d="M409.67,375.21a42,42,0,0,0,4.09,6.57,51.6,51.6,0,0,0,6.17,7,42,42,0,0,0,7.29,5.58,14.36,14.36,0,0,0,7.42,2.3,18.77,18.77,0,0,0,3.53-.33,19.83,19.83,0,0,1,3.54-.32,18.59,18.59,0,0,1,3.12.26l3.12.52a7.94,7.94,0,0,1-2.63,2.44,19,19,0,0,1-3.68,1.64,23.31,23.31,0,0,1-4,.92,29.54,29.54,0,0,1-3.68.26,34.26,34.26,0,0,1-10-1.51,45.45,45.45,0,0,1-9.43-4.07,49.58,49.58,0,0,1-8.25-6,38.5,38.5,0,0,1-6.45-7.36,4.33,4.33,0,0,0-.49-.59,1.75,1.75,0,0,0-.76-.33v2.5a30.94,30.94,0,0,0,.28,4.27,32.39,32.39,0,0,1,.27,4.27,13.56,13.56,0,0,1-.07,1.38q-.06.72-.06,1.38a8.57,8.57,0,0,0-1.88-.07,5.56,5.56,0,0,1-1.87-.2,4.66,4.66,0,0,1-2.08-.79,9.83,9.83,0,0,1-4.58-5.45,24.19,24.19,0,0,1-1-7,71.87,71.87,0,0,1,1.73-15.64q1.74-7.74,3.68-15.37,3.89-15.51,8.32-31.14.56-2,1.46-4.86t1.8-6q.9-3.09,1.53-6a23,23,0,0,0,.62-4.73,17.42,17.42,0,0,0-.2-2.69,16.35,16.35,0,0,1-.21-2.7,4.51,4.51,0,0,0,.76-.06,3.64,3.64,0,0,1,.76-.07,2.35,2.35,0,0,1,.84.26,3.44,3.44,0,0,1,.69.4,9,9,0,0,1,4.16,4.6,15.34,15.34,0,0,1,1.39,6.17,44.12,44.12,0,0,1-1.53,11.57q-1.53,5.64-3.05,11.43-2.08,8.28-4.3,16.55t-3.75,16.69a62.19,62.19,0,0,1,9.09-10.71,55.26,55.26,0,0,1,11.86-8.08,4.1,4.1,0,0,1,2.08-.66,4.44,4.44,0,0,1,2,.53,11.41,11.41,0,0,1,2,1.31,7.62,7.62,0,0,1,1.59,1.78,3.52,3.52,0,0,1,.63,1.9,9.38,9.38,0,0,1-2.22,5.65c-1.48,1.93-2.83,3.55-4,4.87q-4,4.45-7.9,8.86C414.85,369.28,412.25,372.24,409.67,375.21Zm-9.3-3.54h.14v-.13Zm.14-.66a12.13,12.13,0,0,0,2.64-3.61c.64-1.36,1.34-2.7,2.08-4a30.55,30.55,0,0,1,2.36-3.62q1.25-1.63,2.63-3.48l.14-.26a14.42,14.42,0,0,0-2.91,3.15q-1.4,2-2.64,4.08t-2.36,4.2C401.71,368.86,401.07,370.05,400.51,371Zm1-6.57.28-.13c.74-1.23,1.48-2.43,2.22-3.62a34.48,34.48,0,0,1,2.5-3.48l1.11-1.31a13.88,13.88,0,0,0,1-1.32,4.66,4.66,0,0,0,1-.91,34.4,34.4,0,0,1,5.2-4.74c1.89-1.4,3.77-2.84,5.62-4.33a25.67,25.67,0,0,0-8.39,6.11q-3.54,3.87-6.73,7.82c-.74,1-1.44,1.9-2.08,2.82A15.18,15.18,0,0,0,401.48,364.44Zm.14,6.31.14.13v-.13Zm.56-4.47.13.26.28-.26Zm.83,5.78.83-.79,11.1-12.35q2.91-3.29,5.82-6.64t5.55-6.89l-.41-.27a46.27,46.27,0,0,0-14.08,11.17,68.34,68.34,0,0,0-9.51,15Zm.28-7.23H403v.4Zm.13,2.76h-.13l.13.13Zm0-3.28v.39l.28-.39Zm.7-.92c-.37,0-.56.13-.56.39v.13l.14.27Zm.14-.66a1.34,1.34,0,0,0-.14.66.77.77,0,0,0,.28-.53Zm.27-.52v.52l.42-.39A.62.62,0,0,1,404.53,362.21Zm.42-.53v.66a.77.77,0,0,0,.28-.53Zm.42-.53v.4l.27-.4Zm.27,0a.7.7,0,0,0,.28-.52h-.14A.74.74,0,0,0,405.64,361.15Zm.42-1.18v.4l.28-.4Zm.69-1.44-.27.52a.54.54,0,0,1-.14.4V360a.87.87,0,0,0,.27-.66.69.69,0,0,0,.35-.26,2,2,0,0,1,.35-.39l-.14-.13Zm1.11-.79h-.41v.79a.76.76,0,0,0,.27-.53.85.85,0,0,1,.56-.13A.57.57,0,0,0,407.86,357.74Zm0,14.19-.14-.13v.13Zm.42,1.58c1.11-1,2.17-2,3.19-3l15.81-18.13a6,6,0,0,0,.77-1.31c.23-.53.44-1,.62-1.45-.37.61-.76,1.21-1.18,1.78s-.85,1.11-1.31,1.64l-17.35,19.71Zm.28-16.69h-.28v.92a1.46,1.46,0,0,0,.14-.66A.8.8,0,0,0,409,357,.56.56,0,0,1,408.56,356.82Zm.69-.79-.14-.13L409,356V357l.28-.66a.62.62,0,0,1,.42-.13A.59.59,0,0,0,409.25,356Zm.69-.92h-.27v1.05l.27-.79a.57.57,0,0,0,.42-.13A.59.59,0,0,1,409.94,355.11Zm1.11-1.05a.56.56,0,0,0-.41-.13v.65l.28-.39a.82.82,0,0,0,.55-.13Zm2.64,8.8a.12.12,0,0,0-.14.13Zm2.5-2.89a5.33,5.33,0,0,0-1.39,1.58,3,3,0,0,0,.76-.72Zm.83-.79v-.13h-.14l-.42.66Zm.69-10.11-.14-.14-.55.4Zm.7,8.27-.7.92A2.65,2.65,0,0,0,418.41,357.34Zm1.11-1h-.14l-.56.66Zm3.46-3.94a3.16,3.16,0,0,1,.91-1.18,3.32,3.32,0,0,0,.9-1.18,29.59,29.59,0,0,0-4.3,5.12,13.43,13.43,0,0,0,1.25-1.38A11.36,11.36,0,0,1,423,352.35Zm2.78-3.55a2.74,2.74,0,0,0-.7.92Zm3.88-.65h-.14v.39A.53.53,0,0,0,429.64,348.15Z" transform="translate(-0.58 -0.55)"/><path class="cls-2" d="M438.1,387.43a8.36,8.36,0,0,1-5.61-2.23,6.75,6.75,0,0,1-2.57-5.25,36.72,36.72,0,0,1,.77-6.64q.78-4,2-8.28t2.4-8.28c.79-2.67,1.47-4.93,2-6.76.56-1.67,1.1-3.44,1.62-5.33a20.82,20.82,0,0,0,.77-5.45,3.53,3.53,0,0,0-.14-1c-.09-.3-.18-.63-.28-1q.29-.66,1.38-.66a2.68,2.68,0,0,1,.95.33l1,.46a9.94,9.94,0,0,1,4,3.55A9.05,9.05,0,0,1,448,346a34.9,34.9,0,0,1-.9,7.1q-.9,4.2-2.15,8.61t-2.7,8.6c-1,2.81-1.79,5.17-2.43,7.1l.28.13q5.82-7.62,11.51-15.18t12.21-14.65l5-5.52q2.5-2.76,5.13-5.38c.56-.53,1.11-1,1.67-1.52a4.52,4.52,0,0,1,1.94-1,10.12,10.12,0,0,1,2.29.66,13.37,13.37,0,0,1,2.57,1.38,10.76,10.76,0,0,1,2.08,1.83,3.33,3.33,0,0,1,.83,2.17,7.14,7.14,0,0,1-.35,1.84c-.23.79-.51,1.65-.83,2.56s-.65,1.8-1,2.63-.58,1.47-.76,1.91q-1.39,3.42-3.75,9.59T474,371.8q-2.22,6.7-3.81,12.81a40,40,0,0,0-1.6,9.4,3.32,3.32,0,0,0,1.67,3.15c0,.87-.47,1.31-1.39,1.31a9.74,9.74,0,0,1-4.79-1.05,7.66,7.66,0,0,1-2.91-2.82,11.36,11.36,0,0,1-1.39-4,30.09,30.09,0,0,1-.34-4.6,35.13,35.13,0,0,1,.69-6.7c.46-2.37,1-4.75,1.73-7.16s1.46-4.8,2.29-7.16,1.57-4.56,2.22-6.57a55.16,55.16,0,0,1,2.22-5.79q1.25-2.76,2.36-5.65a1.88,1.88,0,0,1-.62.4,2,2,0,0,0-.63.39,83.11,83.11,0,0,0-8.46,9.66q-3.88,5.19-7.35,10.45l-2.85,4.4c-1.15,1.79-2.38,3.63-3.67,5.52s-2.57,3.63-3.82,5.25a24.56,24.56,0,0,1-3.26,3.62A3.44,3.44,0,0,1,438.1,387.43Zm4.3-6,.28-.53A.79.79,0,0,0,442.4,381.39ZM447,370.62A8.39,8.39,0,0,0,445.8,372l-.9,1.37A6.07,6.07,0,0,0,446,372,9.28,9.28,0,0,1,447,370.62Zm-1.11,6.17.56-.66c.09-.17.18-.32.27-.46a2.8,2.8,0,0,0,.28-.46,6.58,6.58,0,0,0-.62.73A3.32,3.32,0,0,0,445.87,376.79Zm.83-2.5-.13.14C446.66,374.43,446.7,374.38,446.7,374.29Zm1.53-5.25a2.2,2.2,0,0,1,.62-.92,4.86,4.86,0,0,0,.77-.79,14.07,14.07,0,0,0,1.45-1.9q.63-1,1.32-2a98.39,98.39,0,0,1,10.41-12.48q5.68-5.79,11-12.09l.41-.53-.28-.26q-5.26,5.39-10.33,10.9a136.75,136.75,0,0,0-9.5,11.57c-1.11,1.49-2.25,3-3.4,4.47a27.84,27.84,0,0,0-3,4.73Zm-.28,3.68v-.13l-.14.13Zm.28.65a19.07,19.07,0,0,0,1.25-1.57q.56-.8,1.11-1.71A14.6,14.6,0,0,0,448.23,373.37Zm2.08-4.73h-.41a.76.76,0,0,1-.28.53h.69l.14-.39Zm2.08-1.44a11.32,11.32,0,0,1-1,1.31,4.48,4.48,0,0,0-.83,1.45A10.6,10.6,0,0,0,452.39,367.2Zm-1.25.39-.27-.13v.4a.53.53,0,0,0,.13.39.7.7,0,0,0,.14-.53h.56A.89.89,0,0,0,451.14,367.59Zm-.27,3.29v.26L451,371Zm.83-4.21h-.28v.27a.53.53,0,0,0,.14.39v.26c0,.09.05.13.14.13v-.78a.56.56,0,0,0,.41-.14h-.27C451.74,366.8,451.7,366.76,451.7,366.67Zm.69-.79-.28-.13v.4a.72.72,0,0,0,.14.52c0-.43.19-.65.56-.65A.59.59,0,0,0,452.39,365.88Zm.42-.91h-.14v.26a1.77,1.77,0,0,1,.14.79,1.8,1.8,0,0,0,.14-.79l.27-.13H453C452.85,365.1,452.81,365.05,452.81,365Zm.55,1.18.14-.53-.41.79Zm6.52-8.28.56-.79h.28l.69-.66a10.32,10.32,0,0,1,.83-1.11c.46-.57.79-.94,1-1.12s.33-.52.7-1.05a12.17,12.17,0,0,1,1.31-1.58l1.46-1.51a4.74,4.74,0,0,1,1-.85l-.28-.13v-.53c-.74.79-1.45,1.58-2.15,2.37a12.31,12.31,0,0,1-2.42,2.1,13.54,13.54,0,0,1,1.52-2c.83-1,1.74-2,2.71-3.09s1.92-2.15,2.84-3.16,1.57-1.72,1.94-2.16A142.06,142.06,0,0,0,462,352.94q-4.57,5.32-8.74,11.11v.39l.14.53a27.24,27.24,0,0,1,1.81-2.44l1.94-2.3a9.69,9.69,0,0,1-.56,1.32l1-.53h.27l.77-1a5.58,5.58,0,0,0,.62-1.12l.42-.26a1.41,1.41,0,0,1,.55-.66Zm-4.3,5-1.11,1.58a3.31,3.31,0,0,1,.83-.53v-.13A1.21,1.21,0,0,0,455.58,362.86Zm0,.92-.14.13v.27A.5.5,0,0,0,455.58,363.78Zm11,21.68h.14v-.39h-.14Zm1.11-4.6-1,3.29.42.13a8.33,8.33,0,0,0,.34-1.71Q467.52,381.79,467.65,380.86Zm15-40.2-.41-.14q-2.22,4.22-4.3,9.27t-4,10.38q-1.87,5.32-3.46,10.64t-2.85,9.79a3,3,0,0,0,.56-.79,80.37,80.37,0,0,0,3.05-9.06q1.25-4.61,2.91-9.07,1.95-5.39,4.23-10.51T482.63,340.66Zm-13.73,7a4.87,4.87,0,0,0,.69-.79,2.1,2.1,0,0,1,.84-.65,1.92,1.92,0,0,1,.69-.79,1,1,0,0,0,.42-.92l1.52-2-5.41,5.65a2.16,2.16,0,0,1,.56-.4A1.7,1.7,0,0,1,468.9,347.62Zm2.22,6.05.14-.14h-.14Zm1-2.5c0,.09,0,.13-.07.13s-.07,0-.07.13h.14Zm.56-1.71-.42.92.42.13Zm0,0,.41-.26c.65-1.32,1.32-2.63,2-3.95s1.41-2.62,2.15-3.94v-.65A33.57,33.57,0,0,0,474.8,345Q473.75,347.23,472.65,349.46Zm6.24-6.44a14.81,14.81,0,0,0-1.18,2.1,22.73,22.73,0,0,0-.9,2.24c.37-.7.74-1.43,1.11-2.17S478.61,343.72,478.89,343Zm1-2.1-.14-.13v.52Z" transform="translate(-0.58 -0.55)"/><path class="cls-2" d="M495.26,348.8l2.49,1.05c.84-1.05,1.78-2.23,2.85-3.54a44.08,44.08,0,0,1,3.46-3.81,21,21,0,0,1,4-3.09,8.5,8.5,0,0,1,4.44-1.25,10.19,10.19,0,0,1,4.58,1.18,16.73,16.73,0,0,1,7.28,7.1,9.33,9.33,0,0,1,1.18,4.33,23.76,23.76,0,0,1-1.53,8.15,49.84,49.84,0,0,1-9.29,15.7,72.8,72.8,0,0,1-6,6.11,33.26,33.26,0,0,1-3.6,2.76,10.81,10.81,0,0,1-4.31,1.58c-.46.09-.94.15-1.45.2s-1,.06-1.46.06a15.36,15.36,0,0,1-6.1-1.18,14.8,14.8,0,0,1-4.79-3.22,14.43,14.43,0,0,1-3.12-4.8,15.32,15.32,0,0,1-1.11-5.78v-1.57a19.93,19.93,0,0,1,1-5.39,40.07,40.07,0,0,1,2.71-6.64,23.29,23.29,0,0,1,4-5.58A6.68,6.68,0,0,1,495.26,348.8Zm-4.72,5.39,2.22-2.37a3.43,3.43,0,0,0-1.32,1.06C491.12,353.32,490.82,353.75,490.54,354.19Zm1.25,7.36h-.28v.26Zm1,17.61a24,24,0,0,0,8.88-4.41,39.73,39.73,0,0,0,7.35-7.42,48.31,48.31,0,0,0,5.41-9,39.47,39.47,0,0,0,3.05-9.13c.09-.44.19-.88.28-1.32a6.41,6.41,0,0,0,.14-1.31,3.61,3.61,0,0,0-.42-1.71,7.46,7.46,0,0,0-4.09,1.78,31.2,31.2,0,0,0-4.65,4.2,33.88,33.88,0,0,0-3.81,5,8.54,8.54,0,0,0-1.6,4.14,3.8,3.8,0,0,0,1.94,3.16,1.65,1.65,0,0,1-1.38.78,6,6,0,0,1-4.58-1.77c-1.11-1.18-2.18-2.39-3.19-3.61-1,2.45-1.94,4.92-2.78,7.42a24.23,24.23,0,0,0-1.24,7.69,27.18,27.18,0,0,0,.13,2.76A16.9,16.9,0,0,0,492.76,379.16ZM496,353.8l.14-.27a11,11,0,0,0-2.22,2.89,35.3,35.3,0,0,0-1.53,3.29c.19-.26.46-.66.84-1.18s.76-1.12,1.18-1.78l1.1-1.77A2.61,2.61,0,0,0,496,353.8Zm-3.05.92a3,3,0,0,0,1.25-1.84Zm8.46-5.79a5.16,5.16,0,0,1,1-1.31c.56-.61,1.18-1.25,1.87-1.91l2-1.9,1.38-1.31h-.27a34.45,34.45,0,0,0-6.39,6.7Zm1,6.18q2.09-2.62,4.09-5.12a48.78,48.78,0,0,1,4.37-4.74v-.13h-.14c-.09,0-.13,0-.13.07s0,.06-.14.06c-.74.53-1.55,1.17-2.43,1.91a18.55,18.55,0,0,0-2.43,2.5q-1.11,1.38-2,2.76A8.14,8.14,0,0,0,502.33,355.11Zm.83-5.12a13.28,13.28,0,0,1,1.18-1.45c.42-.44.81-.87,1.18-1.31-.28.26-.74.72-1.39,1.38S503.16,349.72,503.16,350Zm16,12.61a57.06,57.06,0,0,1-4.37,6.77q-2.43,3.22-5.07,6.37a3.39,3.39,0,0,0-.83,1.31,40.5,40.5,0,0,1,2.78-2.95,42.21,42.21,0,0,0,3.46-3.88,39.07,39.07,0,0,0,2.85-4.07A7.17,7.17,0,0,0,519.12,362.6Zm-10,7.88a7.89,7.89,0,0,0,1.66-1.84c.46-.7.93-1.44,1.39-2.23l-1.8,2.17A5.26,5.26,0,0,0,509.13,370.48Zm.69,2.37-.14-.13C509.68,372.81,509.73,372.85,509.82,372.85Zm1.53-1.58c.46-.7,1-1.4,1.52-2.1s1.07-1.4,1.53-2.1l-3.19,4.07v.13Zm3.19-4.6a.54.54,0,0,0-.14.4Zm2.08,3.29h.14v-.13Z" transform="translate(-0.58 -0.55)"/><path class="cls-2" d="M573.91,325.15a10.43,10.43,0,0,1,5.2,2.56,13.46,13.46,0,0,1,3.12,4.47,21.37,21.37,0,0,1,1.53,5.39,37,37,0,0,1,.42,5.45,58,58,0,0,1-.56,7,92.18,92.18,0,0,1-1.73,9.32,101.74,101.74,0,0,1-2.92,10,52.15,52.15,0,0,1-4.09,9.07,24.67,24.67,0,0,1-5.41,6.63,10.12,10.12,0,0,1-6.66,2.57,4.84,4.84,0,0,1-1.38-.14q-4.86-1.05-6-3.74a17.21,17.21,0,0,1-1.18-6.9c0-2.28.09-4.55.28-6.83s.28-4.56.28-6.83q-2.78,3.81-5.76,7.68t-6.17,7.43a8.2,8.2,0,0,1-6.52,3.15,10,10,0,0,1-3.33-.59,10.26,10.26,0,0,1-3-1.64,10,10,0,0,1-2.22-2.43,5.46,5.46,0,0,1-.91-3.09,20.2,20.2,0,0,1,1-5.39q1-3.28,2.29-7c.88-2.46,1.78-4.82,2.71-7.1s1.62-4.16,2.08-5.65a10.69,10.69,0,0,0,.55-2.43,20.26,20.26,0,0,0,.14-2.43,4.22,4.22,0,0,0-.2-1.18c-.14-.44-.26-.84-.35-1.19a5.07,5.07,0,0,0,.69-.06,4,4,0,0,1,.7-.07,5.19,5.19,0,0,1,2.84,1.12c1.06.74,1.92,1.38,2.57,1.9a10.52,10.52,0,0,1,2.22,2.89,8.23,8.23,0,0,1,.69,3.55,22,22,0,0,1-1.94,9.07,77,77,0,0,0-3.33,8.8,7.63,7.63,0,0,1-.56,1.58v.26q1.53-1.44,3.12-3.15c1.07-1.14,2.06-2.23,3-3.29l2-2.56c1.06-1.36,2.19-2.82,3.4-4.4l3.26-4.27c1-1.27,1.5-2,1.59-2.17l-1.52-1.84c0-.44.15-.7.48-.79a4.13,4.13,0,0,1,1-.13,8.09,8.09,0,0,1,5.68,2.37,8.87,8.87,0,0,1,2.95,5.25,35.54,35.54,0,0,1,.34,3.75c.05,1.27.07,2.52.07,3.74a66.27,66.27,0,0,1-.82,10.38c-.19,1.41-.39,2.76-.62,4.08a23.53,23.53,0,0,0-.34,4.07v.79c2.24-1.58,4.28-4.23,6.15-7.95a80.38,80.38,0,0,0,4.82-12.09,105.69,105.69,0,0,0,3.15-12.81,61.85,61.85,0,0,0,1.11-10.25,23.93,23.93,0,0,0-2.91-11.56c-.18-.35-.35-.68-.48-1s-.31-.63-.49-1Zm-39.53,46.91a7.11,7.11,0,0,0,1.24-2.1c.46-1,.9-2.17,1.32-3.35s.81-2.35,1.18-3.48a26,26,0,0,1,1-2.63l-.41-.13c-.75,2-1.46,4-2.16,5.91S535.11,370.13,534.38,372.06Zm10.68.13c.46-.52,1.22-1.42,2.28-2.69s2.15-2.63,3.26-4.07,2.1-2.79,3-4a17.25,17.25,0,0,0,1.59-2.5H555q-2.62,3.29-5.06,6.64T545.06,372.19Zm2.49-5.65c0-.08,0-.13-.14-.13Zm1.81-2.89a.7.7,0,0,0-.14.53A.77.77,0,0,0,549.36,363.65Zm1-3.68c-.28.26-.42.44-.42.53Zm.41,2.37h.14v-.13Zm3.19.39-.13.13h.13Zm.56-8.15a1.93,1.93,0,0,1,.35-.46l.48-.45-.28-.14a3.15,3.15,0,0,1-.34.53A.85.85,0,0,0,554.49,354.58Zm6.71,15.77h-.28l-.83,5.92a10.56,10.56,0,0,1-.14,2h.42l-.28-2,.42-.27Zm9.24,4.6-.14-.13v.39Zm1.94-4.47a5.18,5.18,0,0,0-.55,1.19Zm2.92-8.67a30,30,0,0,1-1,3,14.78,14.78,0,0,0-.9,3,15.71,15.71,0,0,0,.9-2.43,15.44,15.44,0,0,1,.9-2.43Zm2.91,2.89q1.11-3.4,2-6.83a39.86,39.86,0,0,0,1.18-7l-.28.26A129.59,129.59,0,0,1,578,363.85a118.13,118.13,0,0,1-4.51,12.42,7,7,0,0,0,1.25-2.11c.46-1.05.93-2.16,1.39-3.35s.88-2.34,1.25-3.48S578,365.32,578.21,364.7Zm-2.77,2.37h.14c0-.09-.05-.13-.14-.13Zm1-9.07a4,4,0,0,0-.28,1.05Zm.28,5.13h.13v-.53l.28-.13v-.13l-.41.26Zm1-9.2a1.13,1.13,0,0,0-.7,1,6.22,6.22,0,0,1-.14,1.25l.84-2.23.27-1.45c-.27.18-.41.35-.41.53a1.31,1.31,0,0,0,.07.46A1.53,1.53,0,0,1,577.66,353.93Zm-.42,7.22v.14a.13.13,0,0,0,.14-.14Zm.55-9.72a1.77,1.77,0,0,0,.14.79v-.79Zm.28-1.84a.54.54,0,0,1,.14.4h.14l-.14-.4Zm.56,17.48-.14-.13v.13Zm.55-2.1-.14.13h.14Zm2.22-14.46a6.88,6.88,0,0,0,.21-.72,3.26,3.26,0,0,0,.07-.72h-.28Zm.56-2.76v-.66h-.28a1,1,0,0,1,.14.66Z" transform="translate(-0.58 -0.55)"/><path class="cls-2" d="M607.34,291.25a1,1,0,0,1,1-.79,5.57,5.57,0,0,1,3.05,1,11,11,0,0,1,2.71,2.49,15.84,15.84,0,0,1,1.94,3.22,7.56,7.56,0,0,1,.76,3,26.91,26.91,0,0,1-1,6.05c-.69,2.72-1.5,5.58-2.42,8.61s-1.86,5.91-2.78,8.67-1.62,4.93-2.08,6.5q-.84,2.64-1.8,5.32c-.65,1.8-1.25,3.57-1.81,5.33L597.35,366a119.74,119.74,0,0,0-3.19,12.87A70.52,70.52,0,0,0,592.91,392a19.85,19.85,0,0,0,.35,3.68,35.2,35.2,0,0,0,.9,3.68c.19.79.42,1.6.7,2.43a12.6,12.6,0,0,1,.55,2.43,2.87,2.87,0,0,0-.62.07,3.9,3.9,0,0,1-.63.07,8.72,8.72,0,0,1-5.06-1.58,15.59,15.59,0,0,1-3.82-3.68,11.39,11.39,0,0,1-2.35-5.52,43.91,43.91,0,0,1-.42-6A82.64,82.64,0,0,1,584,373.11q1.51-8.4,3.74-17.28t4.72-17.21q2.49-8.34,4.58-14.39.54-1.83,2.42-6.44t3.82-9.59q1.93-5,3.47-9.13a22.61,22.61,0,0,0,1.52-5.19A4.81,4.81,0,0,0,607.34,291.25Zm-17.2,92.64a7.09,7.09,0,0,0,.41-1.38c.1-.48.19-.94.28-1.38l1.11-6.05c.37-2,.84-4,1.39-6q1.24-4.74,2.43-9.46t2.56-9.46q1.95-6.71,4.23-13.21t4-13.2a17.69,17.69,0,0,0-1.25,3c-.56,1.54-1.18,3.35-1.87,5.46S602,336.5,601.24,339s-1.46,4.79-2.15,7-1.3,4.27-1.81,6.11-.9,3.15-1.18,3.94c-1.38,4.56-2.61,9.15-3.67,13.8A109.83,109.83,0,0,0,590.14,383.89Zm17.48-63.08a1.72,1.72,0,0,0-.7,1.45Zm.41-1.18-.27-.13a4.11,4.11,0,0,0-.14,1.31Zm.7-2.23-.14-.13v.13Z" transform="translate(-0.58 -0.55)"/><path class="cls-2" d="M633.28,352.88a11.72,11.72,0,0,1-2,6.57,19.35,19.35,0,0,1-5.1,5.19,27.1,27.1,0,0,1-6.75,3.41,21.71,21.71,0,0,1-7.1,1.25,4.69,4.69,0,0,0-.41,2.17v2.17c0,.35,0,.87.06,1.57a10.94,10.94,0,0,0,.35,2.11,6.82,6.82,0,0,0,.75,1.84,1.36,1.36,0,0,0,1.16.79,6.06,6.06,0,0,0,3.75-1.19,6.56,6.56,0,0,0,2.25-3l.14-.13V376a2.45,2.45,0,0,1-.63,1.65,4.84,4.84,0,0,0-.9,1.51,3.08,3.08,0,0,0,1.53-1.38,10.88,10.88,0,0,1,1.11-1.78,2.4,2.4,0,0,1,.28.66,1.61,1.61,0,0,1-.42,1.12,2.39,2.39,0,0,0-.56,1.11l1,.14-.14.39.27.13v-.13h.42l-.14-.26h.14l.14-.53h.14l.28-.53v.53a1.77,1.77,0,0,0,.55-1.31l.55-.66a6.15,6.15,0,0,1-2.63,4.6,8.76,8.76,0,0,1-5.27,1.71q-6.39,0-9.92-3.68a13.25,13.25,0,0,1-3.54-9.59,24.48,24.48,0,0,1,1.88-9.33,36,36,0,0,1,4.78-8.41,15,15,0,0,1,12.62-6.31,12.81,12.81,0,0,1,1.88.13,15.72,15.72,0,0,1,1.87.4l-2.77-4.87,1.1-.26a14,14,0,0,1,6.73,4.4A11.27,11.27,0,0,1,633.28,352.88Zm-25.53,6.17a.12.12,0,0,0-.13.13h.13Zm.7-2-.42.66.28.13Zm.14-.26-.14.13h.14Zm2.21-2.89a.53.53,0,0,1,.07-.33s.07-.15.07-.33l.42-.13a.57.57,0,0,0-.42.13l-.69,1.05-.28.4v.13a3.09,3.09,0,0,0-.48.59c-.14.22-.3.46-.49.72a1.72,1.72,0,0,0,1-1.31l.28-.53Zm-.27,9.2c-.09.08-.14.3-.14.65h.14Zm.41-5.79v0Zm.14,5a13.46,13.46,0,0,1,2.09-4.14,20,20,0,0,0,2.35-4.14,20.35,20.35,0,0,0-3,3.81A8.57,8.57,0,0,0,611.08,362.34Zm.56-6.57a1.13,1.13,0,0,0-.14.52A.72.72,0,0,0,611.64,355.77Zm.83-.79a.93.93,0,0,0-.21.33c0,.13-.11.19-.2.19h.13A.7.7,0,0,0,612.47,355Zm13.46-4.47a13.12,13.12,0,0,0-4.44,1.91,17.77,17.77,0,0,0-3.68,3.22,19.2,19.2,0,0,0-2.7,4.07,17.39,17.39,0,0,0-1.53,4.34,8.84,8.84,0,0,0,4-1.58,22.35,22.35,0,0,0,4-3.35,21.48,21.48,0,0,0,3-4.08,8.14,8.14,0,0,0,1.25-4Zm-9.85,3.16c-.1,0-.23.08-.42.26l.56-.26v-.14Zm9,4.07a.74.74,0,0,0-.13.52l-.42.27.42-.13v-.14Zm.7-.79a2.4,2.4,0,0,0,.28-.66l-.28.53Zm.69-1.45c.19,0,.28-.08.28-.26h-.28Zm.83,5-.27.26Zm0-2.76h.14l.14-.4Zm.14,2.76a.62.62,0,0,0,.42-.13A.57.57,0,0,0,627.45,360.5Zm3.19-5-.69,1.06q-.42.66-.9,1.38a14.33,14.33,0,0,0-.83,1.37,2.38,2.38,0,0,0-.35.92A8.45,8.45,0,0,0,629.6,358,14.15,14.15,0,0,0,630.64,355.5Z" transform="translate(-0.58 -0.55)"/><path class="cls-2" d="M678.92,398.47v.27c0,.08,0,.13.14.13,0,.7-.49,1.11-1.46,1.24a16.33,16.33,0,0,1-2.15.2,8.21,8.21,0,0,1-6.66-3A19,19,0,0,1,666,392a48.2,48.2,0,0,1-1.94-6.84c-.51-2.4-.91-4.79-1.18-7.16s-.56-4.42-.84-6.17h-.27q-1.53,2.1-3,4.47a29.06,29.06,0,0,1-3.33,4.4,18.5,18.5,0,0,1-4.16,3.41,9.86,9.86,0,0,1-5.2,1.38,10.5,10.5,0,0,1-5.9-1.51,12.34,12.34,0,0,1-3.74-3.87,15.55,15.55,0,0,1-2-5.26,30,30,0,0,1-.56-5.65,25.83,25.83,0,0,1,4.1-13.47,17.91,17.91,0,0,1,5-5.12,11.88,11.88,0,0,1,6.87-2,15.46,15.46,0,0,1,6.38,1.31q2.91,1.32,5.82,2.76.84-4.86,1.88-10.25a81.71,81.71,0,0,1,2.77-10.57,48.92,48.92,0,0,1,4.51-9.79,30,30,0,0,1,7.07-8,15.82,15.82,0,0,1,2.92-1.9,7.22,7.22,0,0,1,7.07.13,11,11,0,0,1,2.91,2.49,10.38,10.38,0,0,1,1.88,3.42,11.81,11.81,0,0,1,.62,3.61,22.75,22.75,0,0,1-1.46,7.56,58,58,0,0,1-3.6,8.15,70.47,70.47,0,0,1-4.79,7.68,57.8,57.8,0,0,1-5,6.18l-6,6.18a3.11,3.11,0,0,0-.83,2.36c0,1.75,0,3.55-.07,5.39s-.07,3.63-.07,5.39c0,1.49,0,3.39.07,5.71s.14,4.71.28,7.16.37,4.78.69,7a18.1,18.1,0,0,0,1.46,5.25,4.27,4.27,0,0,0,1.87,1.91A9.68,9.68,0,0,0,678.92,398.47Zm-41.13-36.92a14.15,14.15,0,0,0-1.13,3.61,22.77,22.77,0,0,0-.28,3.62c.19-1.23.4-2.44.63-3.62S637.51,362.78,637.79,361.55Zm2.28,1.71c-.29.7-.55,1.42-.79,2.17a7.4,7.4,0,0,0-.35,2.29,1.88,1.88,0,0,0,.07.53,2.41,2.41,0,0,1,.07.53l1.28-5.65Zm.42-1.05c-.28,0-.41.13-.41.39v.13l.13.26A1.88,1.88,0,0,0,640.49,362.21Zm4.72-3.95-.7.27a51.44,51.44,0,0,0-2.49,5.71,17.93,17.93,0,0,0-1,6.11,18.76,18.76,0,0,0,.41,3.94c.28-2.8.58-5.53.9-8.21A19.21,19.21,0,0,1,645.21,358.26Zm-1.67,7.89h.14v-.27h-.14Zm18-8.94h-.28a18.16,18.16,0,0,1-3.19-2.95,4.89,4.89,0,0,0-3.89-1.78,2.47,2.47,0,0,0-1.52.53,19.44,19.44,0,0,0-6.24,8.67,29.66,29.66,0,0,0-2,10.38c0,.7,0,1.51.07,2.43s.14,1.84.28,2.76a12.55,12.55,0,0,0,.69,2.63,7.07,7.07,0,0,0,1.18,2c.47-.44.91-.84,1.32-1.19s.86-.74,1.32-1.18,1.22-1.64,2.57-3.35,2.72-3.55,4.16-5.52,2.7-3.79,3.81-5.45a10.4,10.4,0,0,0,1.67-3Zm-16.51.66h-.14a.36.36,0,0,0,.14.26Zm24.41-4.73h-.13v.79h.13Zm.14-2.1.14-.13h-.14Zm.28-1.45H670v-.13Zm2.36-24.83v-.27c0,.09,0,.14-.07.14s-.07,0-.07.13Zm.83,25.23q.28,0,.9-.66c.42-.44.86-.94,1.32-1.51s.88-1.12,1.25-1.64a7.8,7.8,0,0,1,.83-1.06q1.8-2.1,4-5.19c1.48-2.05,2.87-4.18,4.17-6.37a46.82,46.82,0,0,0,3.26-6.64,17,17,0,0,0,1.31-6.11,24,24,0,0,0-.2-3.08,5.54,5.54,0,0,0-1.32-2.83,5.91,5.91,0,0,0-2.57,1.05,12.8,12.8,0,0,0-2,2,32.87,32.87,0,0,0-4.51,7.3,57.91,57.91,0,0,0-2.91,8,82.67,82.67,0,0,0-1.94,8.41Q673.93,345.92,673.09,350ZM691,322.65h-.28l.28.92c-.47,0-.7.12-.7.33a2.34,2.34,0,0,1-.14.73,23.25,23.25,0,0,1-1.59,4.4c-.7,1.44-1.41,2.87-2.15,4.27a81.79,81.79,0,0,1-5.9,9.52,71.2,71.2,0,0,1-7.28,8.61V352c1.29-1.4,3-3.35,5-5.85s4-5.17,5.9-8a74.75,74.75,0,0,0,4.85-8.34,16.11,16.11,0,0,0,2-6.7ZM673.65,333v-.26l-.14.13C673.51,333,673.55,333,673.65,333Zm1.24-4.2c.47-.17.7-.41.7-.72a2.08,2.08,0,0,1,.28-1A6,6,0,0,0,674.89,328.83Zm.56-9.07.42-.65C675.59,319.37,675.45,319.59,675.45,319.76Zm2.5,29.31a1.78,1.78,0,0,1-.7.13l-1.8,2.62c.28-.26.74-.72,1.39-1.37A5.72,5.72,0,0,0,678,349.07Zm-2.08,4.33h-.14v.27A.36.36,0,0,1,675.87,353.4Zm0-26.67v.39a4.68,4.68,0,0,1,.27-.46,3.71,3.71,0,0,0,.28-.46c1-1.84,2.06-3.63,3.12-5.39a26.8,26.8,0,0,1,4-5,5.65,5.65,0,0,0-2.28,1.78,24.28,24.28,0,0,0-2.22,3,33.59,33.59,0,0,0-1.88,3.35C676.56,325.11,676.14,326,675.87,326.73ZM678.5,316c-.46.44-.92.92-1.39,1.45a10.67,10.67,0,0,0-1.24,1.71A17.87,17.87,0,0,0,678.5,316Zm0,32.46c.09,0,.14,0,.14-.07s.05-.06.14-.06l-.42-.13-.41.26v.66A1.41,1.41,0,0,1,678.5,348.41Zm0-32.46,1.11-.92h-.28Zm.14,33.38,1.11-.66c-.09-.17-.12-.28-.07-.33s.07-.15.07-.33Zm2.22-3.29a.89.89,0,0,0-.56-.13l-.27-.13a1.69,1.69,0,0,0-.42.59,1.6,1.6,0,0,1-.42.59v.66l.7-1A1.18,1.18,0,0,1,680.86,346Zm-1.11,3,.14-.4h-.14Zm1.11-3v-.79l.42-.26c.74-1.22,1.5-2.36,2.28-3.41s1.65-2.11,2.57-3.16a19.94,19.94,0,0,1-2.64,4.54c-1.1,1.44-2.17,2.91-3.19,4.4a4.06,4.06,0,0,0,1.67-1.91,4.06,4.06,0,0,1,1.66-1.9l.14.52.14-.52a3.41,3.41,0,0,0,.49-.59,3.51,3.51,0,0,1,.48-.6l.28-.52a2.93,2.93,0,0,1,.56-.79l.27-.66.28-.52H686l1-1.45.14.66a1.92,1.92,0,0,1,.21-.92l.49-.92.27-.53.7-.78a2,2,0,0,1,.55-1.32,2,2,0,0,0,.56-1.31l.41-.53.42-1.31a4.13,4.13,0,0,0,.83-1.38,17.71,17.71,0,0,0,.76-2.24c.23-.83.42-1.62.56-2.36a9.87,9.87,0,0,0,.21-1.64,1.64,1.64,0,0,0-.21-.79,2.58,2.58,0,0,0-.49-.66l-.41.13c-.56,1.67-1.09,3.33-1.6,5a37.18,37.18,0,0,1-1.87,4.86q-.84,1.71-2.43,4.6a36,36,0,0,1-2.7,4.33l-.7.79a11.23,11.23,0,0,1-1,1.45,3.2,3.2,0,0,0-.69,1.18l-.42.26v.26A1,1,0,0,0,680.86,346Z" transform="translate(-0.58 -0.55)"/><path class="cls-2" d="M709.16,372.59a37.71,37.71,0,0,0-3.26,2.89c-1.07,1-2.15,2.06-3.26,3a18.13,18.13,0,0,1-3.61,2.43,9.35,9.35,0,0,1-4.3,1,12,12,0,0,1-4.79-1,13.71,13.71,0,0,1-4-2.63,12.61,12.61,0,0,1-2.77-3.81,10.22,10.22,0,0,1-1-4.53,26,26,0,0,1,1.8-9.13A32.23,32.23,0,0,1,689,352a29.34,29.34,0,0,1,7.56-6.71,17.54,17.54,0,0,1,9.3-2.62,17.22,17.22,0,0,1,8.32,2.1,18.86,18.86,0,0,1,6.38,5.52,2.47,2.47,0,0,1,.56,1.18,2.44,2.44,0,0,1-.14.79c-.09.26-.19.52-.28.79-.46-.27-1-.59-1.66-1s-1.32-.79-2-1.18-1.38-.74-2.08-1a4.42,4.42,0,0,0-1.73-.46,15.38,15.38,0,0,0-8.6,2.63,26.9,26.9,0,0,0-6.94,6.57,33.3,33.3,0,0,0-4.57,8.54,25.18,25.18,0,0,0-1.67,8.54,1.81,1.81,0,0,0,.07.52,2,2,0,0,1,.07.53h.69a3.53,3.53,0,0,0,1.53-.33c.46-.22.92-.46,1.39-.72a29.3,29.3,0,0,0,9.71-9.33q1.25-1.84,2.49-3.94a13,13,0,0,1,3.06-3.55l5.41,3a3.39,3.39,0,0,1,1.94,3.16,133.92,133.92,0,0,1-.9,15.57,83.27,83.27,0,0,1-3.26,15.17,138.9,138.9,0,0,1-7.63,18.6A63.18,63.18,0,0,1,694,430.67q-1.53,1.44-3.33,2.89a29.39,29.39,0,0,1-3.89,2.62,26.92,26.92,0,0,1-4.3,2,13.32,13.32,0,0,1-4.44.78,12.17,12.17,0,0,1-3.6-.59,12.35,12.35,0,0,1-3.47-1.64,10.36,10.36,0,0,1-2.57-2.5,5.5,5.5,0,0,1-1-3.28,24.93,24.93,0,0,1,2.22-9.4,79.42,79.42,0,0,1,5.55-10.77,101.94,101.94,0,0,1,7.08-10.19A87.2,87.2,0,0,1,688.9,393a65,65,0,0,1,6.25-5.45,37.79,37.79,0,0,1,7.21-4.27l.56,1a6.89,6.89,0,0,1,1.8.79,2.55,2.55,0,0,1,1.11,1.45,17.22,17.22,0,0,0,2.36-6.71Q708.88,375.61,709.16,372.59ZM671.77,422a3.13,3.13,0,0,0,.83-1.7l4.72-8.94a9.34,9.34,0,0,0-1.11,1.71c-.56,1-1.16,2.05-1.8,3.28s-1.23,2.39-1.74,3.49A16.43,16.43,0,0,0,671.77,422Zm1.74,7.89h.27v-.66Zm11.36-22.74q-2.11,3.56-4.3,7.1c-1.45,2.37-2.84,4.77-4.15,7.23a20.2,20.2,0,0,0-1.51,3.74q-.54,1.91-1.23,3.75a9,9,0,0,0,1.78-3.22c.37-1.18.78-2.35,1.24-3.48q1.41-3,3.1-5.92c1.12-1.92,2.3-3.85,3.52-5.78.47-.7.89-1.38,1.27-2s.75-1.33,1.12-2Zm20.82-17.6a40.73,40.73,0,0,0-5.48,4.6q-3.12,3-6.45,6.83t-6.52,8.15q-3.19,4.33-5.69,8.54a64.76,64.76,0,0,0-4.09,8,17.61,17.61,0,0,0-1.6,6.57h.42l1-.39A36.15,36.15,0,0,0,687.1,424a71.51,71.51,0,0,0,8-10.77,94.22,94.22,0,0,0,6.17-12.09Q703.89,394.92,705.69,389.54Zm-29.13,27.72.28-.26C676.65,417,676.56,417.09,676.56,417.26Zm10.26-19.18-.14.13C686.78,398.21,686.82,398.16,686.82,398.08Zm1.67-41.39a3.31,3.31,0,0,0,.76-.66,13.6,13.6,0,0,0,1-1.18c.32-.44.63-.88.9-1.32s.46-.74.56-.92c-.56.62-1.11,1.27-1.67,2S689,356,688.49,356.69Zm1.52,8.93.28.13a.74.74,0,0,1,.14-.52Zm.7-1.57c.46-.7.85-1.34,1.18-1.91s.67-1.2,1-1.91a23,23,0,0,1,2.7-4,42.28,42.28,0,0,1,3.26-3.49,1.39,1.39,0,0,0-1,.4,22.64,22.64,0,0,0-4.58,4.93A16.85,16.85,0,0,0,690.71,364.05Zm.55,35.21c.09,0,.14,0,.14-.13ZM694.73,350h-.14l-.28.39Zm-.14,3.41-.14-.13v.4Zm15.95,42.44a2.87,2.87,0,0,0-.55,1.06,109.39,109.39,0,0,1-10.82,22.33c-.65,1-1.32,1.95-2,3a19.09,19.09,0,0,0-1.74,3.09,52.12,52.12,0,0,0,7.63-10.71,81.35,81.35,0,0,0,5.41-12,20,20,0,0,0,1-3.35A19.87,19.87,0,0,1,710.54,395.84Zm-9.85,12.09c-.92,1.49-1.82,3-2.7,4.6s-1.73,3.16-2.57,4.73a21.89,21.89,0,0,0,2.92-4.53Q699.58,410.17,700.69,407.93ZM696,420.55h.14v-.26C696,420.29,696,420.37,696,420.55Zm1.66-2.37a.85.85,0,0,0,.56-.26Zm3.47-10.9a.75.75,0,0,1,.14-.53,2.88,2.88,0,0,0-.56,1.05ZM707.22,366l-4.3,5.25,2.14-2.56C705.76,367.88,706.47,367,707.22,366Zm-4.17,9.72v.13a.83.83,0,0,0,.56-.13Zm.56,0,1.66-2.23c-.37.26-.74.54-1.11.85a1.4,1.4,0,0,0-.55,1.12Zm1.39,23,.27-.79A2,2,0,0,0,705,398.74Zm.83-2.63L706,396h-.14Zm.28,14.58h.13v-.13Zm.69-38.89a3.56,3.56,0,0,0,1.52-1.84A9.13,9.13,0,0,0,706.8,371.8Zm.28,20.89h-.14v.13Zm.14-20,.27-.26-.41.26Zm.55-3.16h-.14c0,.09,0,.14-.07.14s-.07,0-.07.13Zm2.08-7.22-.28-.13L707.91,365a11.51,11.51,0,0,1,1.11-1.45A4.5,4.5,0,0,0,709.85,362.34Zm-.69,5.38-.14.14a.44.44,0,0,0,.28-.14Zm2.22,26H711l-.28,1.71A7.4,7.4,0,0,0,711.38,393.74Zm0-1.05h.41V392Zm.41-.79a.44.44,0,0,0,.14-.33.42.42,0,0,1,.14-.32l-.28-.14Z" transform="translate(-0.58 -0.55)"/><path class="cls-2" d="M753.41,352.88a11.72,11.72,0,0,1-2,6.57,19.35,19.35,0,0,1-5.1,5.19,27,27,0,0,1-6.76,3.41,21.65,21.65,0,0,1-7.09,1.25,4.67,4.67,0,0,0-.42,2.17v2.17c0,.35,0,.87.07,1.57a11.74,11.74,0,0,0,.34,2.11,7.15,7.15,0,0,0,.75,1.84,1.39,1.39,0,0,0,1.16.79,6.07,6.07,0,0,0,3.76-1.19,6.63,6.63,0,0,0,2.25-3l.14-.13V376a2.45,2.45,0,0,1-.63,1.65,4.65,4.65,0,0,0-.9,1.51,3.08,3.08,0,0,0,1.53-1.38,10.24,10.24,0,0,1,1.11-1.78,2.24,2.24,0,0,1,.27.66,1.65,1.65,0,0,1-.41,1.12,2.3,2.3,0,0,0-.56,1.11l1,.14-.14.39.28.13v-.13h.42l-.14-.26h.14l.14-.53h.14l.27-.53v.53a1.74,1.74,0,0,0,.56-1.31l.55-.66a6.15,6.15,0,0,1-2.63,4.6A8.79,8.79,0,0,1,736.2,383q-6.37,0-9.91-3.68a13.25,13.25,0,0,1-3.54-9.59,24.47,24.47,0,0,1,1.87-9.33,36.39,36.39,0,0,1,4.79-8.41A15,15,0,0,1,742,345.65a12.57,12.57,0,0,1,1.87.13,15.87,15.87,0,0,1,1.88.4L743,341.31l1.11-.26a14,14,0,0,1,6.73,4.4A11.27,11.27,0,0,1,753.41,352.88Zm-25.53,6.17a.12.12,0,0,0-.14.13h.14Zm.7-2-.42.66.28.13Zm.13-.26-.13.13h.13Zm2.22-2.89c0-.18,0-.29.07-.33s.07-.15.07-.33l.42-.13a.57.57,0,0,0-.42.13l-.69,1.05-.28.4v.13a2.8,2.8,0,0,0-.49.59q-.21.33-.48.72a1.74,1.74,0,0,0,1-1.31l.28-.53Zm-.27,9.2c-.1.08-.14.3-.14.65h.14Zm.41-5.79v0Zm.14,5a13.24,13.24,0,0,1,2.09-4.14,20,20,0,0,0,2.35-4.14,20.35,20.35,0,0,0-3,3.81A8.49,8.49,0,0,0,731.21,362.34Zm.56-6.57a1,1,0,0,0-.14.52A.72.72,0,0,0,731.77,355.77Zm.83-.79a.81.81,0,0,0-.21.33c0,.13-.12.19-.21.19h.14A.74.74,0,0,0,732.6,355Zm13.45-4.47a13.07,13.07,0,0,0-4.43,1.91,17.77,17.77,0,0,0-3.68,3.22,18.86,18.86,0,0,0-2.71,4.07,17.34,17.34,0,0,0-1.52,4.34,8.84,8.84,0,0,0,4-1.58,22.27,22.27,0,0,0,7.08-7.43,8.12,8.12,0,0,0,1.24-4Zm-9.85,3.16c-.09,0-.23.08-.41.26l.55-.26v-.14Zm9,4.07a.74.74,0,0,0-.14.52l-.41.27.41-.13v-.14Zm.7-.79a2.24,2.24,0,0,0,.27-.66l-.27.53Zm.69-1.45c.18,0,.28-.08.28-.26h-.28Zm.83,5-.28.26Zm0-2.76h.14l.14-.4Zm.14,2.76a.64.64,0,0,0,.42-.13A.57.57,0,0,0,747.58,360.5Zm3.19-5c-.19.27-.42.62-.69,1.06s-.58.9-.9,1.38a14.54,14.54,0,0,0-.84,1.37,2.48,2.48,0,0,0-.34.92,8.67,8.67,0,0,0,1.73-2.23A15,15,0,0,0,750.77,355.5Z" transform="translate(-0.58 -0.55)"/><path class="cls-2" d="M49.35,221.37V98.69H72.63V221.37ZM75.27,64.22c0,7.65-5.53,13.67-14.85,13.67-8.45,0-14-6-14-13.67S52.22,50.3,61,50.3c8.47,0,14.29,6.13,14.29,13.92" transform="translate(-0.58 -0.55)"/><path class="cls-2" d="M108.13,198.81c7.17,4.09,19.37,8.53,31,8.52,16.72,0,24.65-7.71,24.67-18.23s-6.63-16.13-23.58-22.26c-23.34-8.06-34.2-20-34.2-34.66,0-19.82,17-36.06,44.27-36.07,13,0,24.36,3.34,31.24,7.72L175.93,120a50.75,50.75,0,0,0-26.23-7.35c-13.74,0-21.18,7.55-21.18,16.72,0,10.12,7.43,14.67,24.1,21,22,7.9,33.67,18.47,33.67,36.71,0,21.73-17.74,37.17-47.71,37.17-14,0-27-3.74-36-8.77Z" transform="translate(-0.58 -0.55)"/><path class="cls-2" d="M327.37,221.36V98.63h23.26V221.35ZM353.25,64.18c0,7.67-5.54,13.69-14.82,13.69-8.41,0-14-6-14-13.69s5.8-13.9,14.56-13.9c8.5,0,14.28,6,14.29,13.9" transform="translate(-0.58 -0.55)"/><path class="cls-2" d="M417.37,69.24V98.61H450.8v17H417.37v66.21c0,15.21,4.52,23.73,17.48,23.73a55.7,55.7,0,0,0,14.66-1.77v17.32A67.48,67.48,0,0,1,428.81,224c-10.87,0-19.61-3.5-25.23-9.34-6.3-6.78-9-17.65-9-32v-67H374.77l0-17H394.6l0-22.78Z" transform="translate(-0.58 -0.55)"/><path class="cls-3" d="M251.51,217.25l9.05-95.5h31l1.55-17h-31l.58-6.6c1.75-19,8.29-40,28.2-40,6.86,0,16,2.1,19.27,3.68V43.69a52.69,52.69,0,0,0-19.53-3.54c-10.9,0-22.77,3.27-32.28,11.43-11.54,9.88-17.19,30.08-18.74,47.32l-.56,5.84H211.91l-1.57,17h27.19l-9.05,95.51-.59,6.54c-1.72,19.06-8.27,35.54-28.15,35.54-6.88,0-11.29-1.29-14.61-2.91l-4.75,17.29a52.86,52.86,0,0,0,19.55,3.54c10.87,0,22.84-3.27,32.33-11.25,11.48-9.94,17.15-25.72,18.75-43Z" transform="translate(-0.58 -0.55)"/><path class="cls-2" d="M588.38,193.59c3.25,0,6.54-.16,9.9-.49s6.64-.48,9.89-.48a97.25,97.25,0,0,1,19.13,1.94A36.79,36.79,0,0,1,644.48,203l4.87,3.89a14.45,14.45,0,0,1-5.58,2.11,36.68,36.68,0,0,1-5.9.49c-1.7,0-3.42,0-5.14-.16s-3.45-.17-5.18-.17A150,150,0,0,0,612,210a155.24,155.24,0,0,0-15.57,2.43,148.24,148.24,0,0,0-16.21,4q-7.79,2.43-15.89,5a10.78,10.78,0,0,1-3.24.65,19.37,19.37,0,0,1-2.76-.17c-.76-.1-1.68-.27-2.76-.48l-1-1.62-3.24,1v-2h-2.27l.32-2.27-1.95.65-3.24-2.92,1-2.59-2.28,1-1.62-2.43a5,5,0,0,1-1-2.76,3.41,3.41,0,0,1,1.14-2.43c.75-.75,1.34-1.35,1.78-1.78q6.48-6.16,12.65-12.32t12-12.65q4.54-4.86,11.19-12.32T593,149.81q7.29-8.76,14.59-18.48t13.13-19a137.56,137.56,0,0,0,9.57-17.68Q634,86.26,634,79.77a13.74,13.74,0,0,0-.17-2.27c-.11-.65-.27-1.41-.48-2.27a18.49,18.49,0,0,0-4.22-.65,24.4,24.4,0,0,0-3.89.32,26.38,26.38,0,0,0-3.89,1A124.64,124.64,0,0,0,599.66,84Q588,89.5,581.83,98.25a14,14,0,0,0-2.11,3.73c-.54,1.41-1.13,2.76-1.78,4.06a37.13,37.13,0,0,1-9.08-4.87,10.2,10.2,0,0,1-4.54-8.75,18.68,18.68,0,0,1,5.19-12.65,51.79,51.79,0,0,1,12.64-10.22,91.93,91.93,0,0,1,15.57-7.29,63.06,63.06,0,0,1,13.94-3.57c1.51-.21,3-.38,4.54-.49s3-.16,4.54-.16a23.63,23.63,0,0,1,10.69,2.27,38.64,38.64,0,0,1,9,6.49,112.72,112.72,0,0,1,8.93,10.37,20.84,20.84,0,0,1,4.47,13A51.28,51.28,0,0,1,650.77,107a126.31,126.31,0,0,1-7.58,17.35,135.71,135.71,0,0,1-10.06,16.21q-5.5,7.62-10.7,13.78l-16.7,19.94Q597.47,184.19,588.38,193.59Zm-13.69-12.65,1.62-3.24L575,179a1.83,1.83,0,0,0-.65,1.29ZM577,79.77l-1.29,1.29,1.62-1.29Zm60.59,38.59a245.44,245.44,0,0,1-29,39.56q-16.38,18.17-31.95,37.29,2.92-2,9.57-9.24t14.11-15.89q7.46-8.6,14.1-16.7t9.57-12q4.22-5.5,7.62-11A78.12,78.12,0,0,0,637.55,118.36ZM587.67,84a46.51,46.51,0,0,0-6.81,4.87q-3.9,3.24-3.9,6.81a39.34,39.34,0,0,1,5.19-6C584.1,87.82,585.93,85.93,587.67,84Zm-9.08,1.3-1.3,1.62A3.5,3.5,0,0,0,578.59,85.28ZM580.86,83h-.33l-.65.65Zm37.94,43.13q-9.09,12.33-18.65,23.83t-19,23.19c1.3-1.3,3.94-4.27,8-8.92s8.21-9.61,12.64-14.92,8.38-10.15,11.84-14.59,5.19-7.18,5.19-8.27Zm-22.38,37.94-2.92,4.22c.65-.65,1.3-1.25,2-1.79A3,3,0,0,0,596.42,164.08Zm7.46,6.81-.32.32a.91.91,0,0,0,.64-.32ZM622.36,132a45.6,45.6,0,0,0-4.05,5.35,46.73,46.73,0,0,1-4,5.35L605.18,154c.86-.86,2.15-2.32,3.89-4.38s3.51-4.22,5.35-6.49,3.51-4.48,5-6.64A44.82,44.82,0,0,0,622.36,132Zm0-10.06H622a.91.91,0,0,1-.33.65Z" transform="translate(-0.58 -0.55)"/><path class="cls-2" d="M657.71,219.53a17.44,17.44,0,0,1,9.07-8.43q6.5-2.92,11.68-5.51A175.23,175.23,0,0,1,685.59,168q5.19-17.17,10.87-34.05T708,100.2q1.62-4.55,3.73-9.08A43.26,43.26,0,0,0,714.78,82,18.2,18.2,0,0,1,708,83.66a12.29,12.29,0,0,1-9.08-3.57,47.71,47.71,0,0,1-6.16-7.46,20.59,20.59,0,0,1,4.7-3.08,74.47,74.47,0,0,1,7.62-3.4q4.22-1.62,8.11-3.24c2.59-1.08,4.54-1.95,5.83-2.6a55.49,55.49,0,0,0,5.19-3.08,10.79,10.79,0,0,1,5.52-2.11c1.5.87,2.8,1.57,3.89,2.11a20.85,20.85,0,0,1,2.75,1.62,11.3,11.3,0,0,1,2.27,2.27c.76,1,1.67,2.22,2.76,3.73a16.07,16.07,0,0,0,2.76,3.24A5,5,0,0,1,745.58,72a10.48,10.48,0,0,1-.65,3.25q-1.29,3.88-5,13.62t-8.59,22.54q-4.87,12.81-10.06,27.07t-9.56,26.59q-4.38,12.33-7.14,21.24t-2.43,11.19q2.6-.31,5.51-.49c2-.1,3.78-.16,5.52-.16a42.44,42.44,0,0,1,8.1.65,19.76,19.76,0,0,1,5.84,2.11,26.57,26.57,0,0,1,5,3.73q2.43,2.27,5.67,5.51a24.24,24.24,0,0,1-7.3,1.46,54.55,54.55,0,0,0-7.29.81,83.19,83.19,0,0,0-17,3.73,122.16,122.16,0,0,0-16,6.65c-.86.43-2.11,1.08-3.73,1.94l-4.86,2.6a49.49,49.49,0,0,1-4.87,2.27,11,11,0,0,1-3.72,1,5,5,0,0,1-4.22-2.27l-2.27.65-1.3-1.95h.33l-.33-1.62a10.16,10.16,0,0,1-3.89-1l.33-2.27Zm5.83-.32h-.32v.32Zm35.67-39.56h.33v-.33Zm3.57-11c0-.21.05-.32.16-.32s.16-.11.16-.33h-.32Zm2.92-8.76h-.33v1.3A1.85,1.85,0,0,0,705.7,159.86Zm1.62-3.89-.32-.32v1Zm.32-2.92H708v-.64A.91.91,0,0,0,707.64,153.05Zm1.3-3.89h1a3.5,3.5,0,0,0-.16-1.13,3.57,3.57,0,0,1-.16-1.14A5.17,5.17,0,0,0,708.94,149.16Zm5.84-14.91a3.5,3.5,0,0,0,1-2.6l-.32-.65A10.78,10.78,0,0,1,714.78,134.25Zm1.94-5.19,1.62-3.89a1.83,1.83,0,0,0-1.29.65,22.34,22.34,0,0,1-1.62,3.89A1.87,1.87,0,0,0,716.72,129.06Zm3.89-11.35a22.41,22.41,0,0,0-2.27,4.54,2.91,2.91,0,0,0,1.95-2A10.87,10.87,0,0,0,720.61,117.71Zm3.9-8.76a1.38,1.38,0,0,0-1-.32l-1.29,4.86A21.4,21.4,0,0,1,724.51,109Zm0-2.27.32.33v-.33ZM728.07,96a.29.29,0,0,0,.33.33V96Zm1.63-1.62-.33-.32v1Z" transform="translate(-0.58 -0.55)"/><path class="cls-4" d="M503.11,62.76l0-.81h-.22C503,62.25,503,62.52,503.11,62.76Z" transform="translate(-0.58 -0.55)"/><path class="cls-4" d="M505.68,63.63v-.26a1.09,1.09,0,0,1-.17.05Z" transform="translate(-0.58 -0.55)"/><path class="cls-4" d="M502.91,62c-.79,0-1.59.36-2.37-.07l0-1.81c-.42-.46-.86,0-1.29,0,0-.45,0-.89-.19-.9-.56-.31-1,.17-1.11,1C500.36,62.18,501.09,67.15,502.91,62Z" transform="translate(-0.58 -0.55)"/><path class="cls-4" d="M504.54,65.6l.07-2.38c-.49-.25-1-.6-1.48-.37A6.13,6.13,0,0,0,504.54,65.6Z" transform="translate(-0.58 -0.55)"/><path class="cls-4" d="M491.6,249.16c.13,0,.2.07-.05.45,0-.16,0-.3.05-.45s-.3,0-.36-.23a46.46,46.46,0,0,1-.1,5.23c.2.26.4.51.61.74.42-4.4,1-8.79.27-12.52C491.71,244.92,491.86,246.71,491.6,249.16Z" transform="translate(-0.58 -0.55)"/><path class="cls-4" d="M493,255.41c0,.15,0,.29-.05.45C493.19,255.48,493.13,255.43,493,255.41Z" transform="translate(-0.58 -0.55)"/><path class="cls-4" d="M496.52,176.59a33,33,0,0,0-1-7.64c.18,5.15.05,10.42.52,14.39C496.18,181.1,496.32,178.85,496.52,176.59Z" transform="translate(-0.58 -0.55)"/><path class="cls-4" d="M493.61,156.76a21.8,21.8,0,0,0,.17,8.83q0-4.05.09-8.05C493.78,157.28,493.71,157,493.61,156.76Z" transform="translate(-0.58 -0.55)"/><path class="cls-4" d="M494.66,160.59a27.85,27.85,0,0,0,.84,8.36A55.8,55.8,0,0,0,494.66,160.59Z" transform="translate(-0.58 -0.55)"/><path class="cls-4" d="M508.69,223.48a25,25,0,0,1,.52,4.07c.26.35.58.8,1,1.41,0-.12,0-.24,0-.36-.15-2.15-.26-4.32-.35-6.51a15.55,15.55,0,0,0-.65-2.53C509,220.87,508.84,222.18,508.69,223.48Z" transform="translate(-0.58 -0.55)"/><path class="cls-4" d="M509.21,227.55c-2.27-2.93,0,2.77,0,0Z" transform="translate(-0.58 -0.55)"/><path class="cls-4" d="M497.15,213l0-.31c0-.3,0-.61-.05-.92C497.14,212.16,497.14,212.56,497.15,213Z" transform="translate(-0.58 -0.55)"/><path class="cls-4" d="M505.71,188.48c-.08,1.79-.09,3.59,0,5.37a75.46,75.46,0,0,0-.14-10.4c0,.45-.3.89-.34,1.34A8.88,8.88,0,0,1,505.71,188.48Z" transform="translate(-0.58 -0.55)"/><path class="cls-4" d="M497.62,227.21c0-5-.15-9.82-.44-14.55.93-9.44,1.28-18.6.27-26.94-1.05-7.34.42-19.9-2.48-27.35a20.38,20.38,0,0,0-.31,2.22,23.8,23.8,0,0,0-.79-3.05c.13-11.92.46-23.58,1.15-35.69.11-1.8-.48-3.19-.38-5s.11-3.61.16-5.4a.16.16,0,0,0-.14.06c.1-7.41,0-14.7-.4-22.39-.07-3.6.28-7.19.39-10.77.05-1.35.91-1.32,1.16-2.22a49.45,49.45,0,0,0,2.68-10.26l.64,0a6.63,6.63,0,0,1,.05-1.64c2.37,2,3.1,7,4.92,1.78h0l.19.81v.08h0a6.12,6.12,0,0,0,1.41,2.76l.06-2.38a1.31,1.31,0,0,0,.91.19c.05.07.11.14.16.22v.64a1.83,1.83,0,0,0,.49.27c.88,2.1,1.26,5.39,2.17,4.79.48-.47.13-2-.1-3.73a2,2,0,0,0,.22-.34c.16,2.27,1.51,0,1.69,1.41-.05,1.81.1,3.62.05,5.43-.23,7.38-.27,13.6.08,20.87l0,1a79.59,79.59,0,0,1-.33,10.27c-.13-.22-.26-.46-.38-.7a50.14,50.14,0,0,0-.29,8.31,189.17,189.17,0,0,1,.72,20.94c-.31,7.61-.38,14.94-.24,22.71a95.9,95.9,0,0,1-.36-9.61c.12-1.44.24-2.89.29-4.29-.17,1.45-.26,2.87-.29,4.29-.48,5.58-1.18,11.28.49,15.74-.21.45-.43.44-.46.89-.25,3.17-.73,6.32-.1,9.1.21,0,.09,1.38.56,1,0,2.73-.27,5.91-.1,8.66a13.16,13.16,0,0,0,.73,3.62c.28,9.83.46,19.56.44,30.16-.07,2.63-.41,5.63-.7,8.27-.28-4-.43-8-.55-12.13.58-3.92,1-7.69.17-10.9-.13-.74-.26-1.48-.37-2.22.06,4.42.1,8.8.2,13.12-.34,2.31-.72,4.68-1,7l0-.15c-.06-1.86-.12-3.73-.18-5.62a33.23,33.23,0,0,0,.39-9.8c-.06-.37-.13-.74-.22-1.09q-.19-1.11-.36-2.22,0,4.08.09,8.12c0,1.67.07,3.34.1,5-.16,1-.31,2.06-.47,3.09,0-.11-.08-.23-.13-.34-.12-.93-2.37-3.73-3.16-2.45-.33,3.48-.55,7.69-.68,11-.06,1.67-.12,3.12-.16,4.15a7.11,7.11,0,0,1-.16,1.64c-.89.34-.7-11.69-1-11.26-.17.66-.33,1.31-.47,2-.1-.65-.21-1.29-.35-1.88-.07-1.38.35-3.16,0-4.11-.95-3.29-.15-6.85-.62-10.55-.42-2.32-1-5.11-1.61-7.89-.43-.05-.08-1.38-.56-1,.26-2.54.54-5.48-.62-6.69l0-.19a2.32,2.32,0,0,0-.1-.72c.6-4.21-.3-7.26-.8-11.17,0-1.33.05-2.67.16-4.05a16.62,16.62,0,0,0-.27,3.15c0,.3.07.61.11.9,0,3.44.25,6.74.42,10a10.55,10.55,0,0,1,.38,1.13c0,.23-.07.47-.11.7l.23.21c.34,3.17.19,6.7.57,9.41.26,5.08-.68,10.36-1.34,15.44-.09-2.57-.21-5.11-.37-7.6,0,3.11.11,6,.21,8.9l-.15,1.29-.3,2.7c.19-.83.36-1.65.51-2.48.06,1.71.14,3.4.24,5.06a171.63,171.63,0,0,1-2.08,27.6,7.85,7.85,0,0,1-.7-.71c.43-4.41,1-8.81.25-12.55-.3,2.54-.12,4.34-.39,6.8-.13,0-.31,0-.36-.23a44.5,44.5,0,0,1-.11,5.24c-.48-.64-.95-1.35-1.42-2a15.49,15.49,0,0,1-.19-3.68c.33-5.87,1.11-11.34,1.23-17.15.66-5.1,1.31-10.2,1.79-15.22C497.24,218,497.35,222.66,497.62,227.21Zm5.31-151.58c.07.47.16,1,.26,1.43l.16-.21A2.14,2.14,0,0,0,502.93,75.63Zm-.58,10.54c.51-3.08.13-7.17-.07-11.12a.38.38,0,0,0-.17,0C501.8,78.3,502.21,82.38,502.35,86.17Zm-5,12.17.07-.08h-.1ZM501,153.58c-.82-3.69-.48-8.19-.63-12.72.09-1.35-.68-2.76-.56-4.56-.07-2.26-.41-3.64-.52-5.45l-.51,1.32c.4-3.14-.79-5-.17-8.14a1,1,0,0,1-.59-.93c-.08-2.26.47-4.49.13-6.31a53.2,53.2,0,0,0-.31-6.33c0-.45-.58-1.38-.75-2.29,0-1.1,0-2.21-.05-3.3l-.18.12a15.36,15.36,0,0,0,0,2.71c.29,2.72.55,5.89.63,8.6.08,6.77.55,13.12,1,19.47.12,1.36.47,2.74.59,4.1.61,4.11,0,9,1.34,11.86C500.68,152.19,500.61,153.09,501,153.58Zm9,5.74a67.75,67.75,0,0,1-.11-14.64c.24-3.63-.36-14.12-3.08-12.47,2.21,2.39,1.76,9.87,1.35,16.4S507.39,160.71,510,159.32Zm.69,38.11a34.41,34.41,0,0,1-.09-6Zm-7-20.05c1,6,.63,12.33.95,18.28.19,4.58-1.35,9.43-.27,13.64l.64.07-.17-.47c.3-1.57.76-2.82,1.08-4.13l0,.24v-.4a10.49,10.49,0,0,0,.25-2.88l-.15-1.5c.19-5.68.37-11.55-.51-16.78-.36-3.22-1.22-6-1.59-9.23A15.22,15.22,0,0,0,503.66,177.38Z" transform="translate(-0.58 -0.55)"/><path class="cls-4" d="M499.05,219c.05,2,.08,4,.08,6,.09,1.56.21,3.1.35,4.65.32,7.36-1.08,15.76-1.55,23.57a2.55,2.55,0,0,0,1.94.22c1.77-8.34,1.63-16.91,2.94-25.31l0-.21c-.88-3.75.2-9.56-.41-14.18-.81-4.65-.78-9.2-1.42-13.8C500.31,206.36,500.11,212.6,499.05,219Z" transform="translate(-0.58 -0.55)"/><path class="cls-4" d="M493.78,165.59c0,1.77,0,3.54,0,5.33.08,5,.38,9.46.73,14,.2-3.32.4-6.64.69-10C495.23,171.59,494.39,168.66,493.78,165.59Z" transform="translate(-0.58 -0.55)"/><path class="cls-4" d="M494.79,188.65c-.1-1.25-.21-2.48-.31-3.7-.29,4.9-.47,9.79-.68,14.66.1,8,0,16.1.26,24.19,0,.92,0,1.83,0,2.73,1.92-14.79,3.66-29.59,2.06-42.44l-.09-.75c-.4,6-.63,12-.89,17.91C495.09,197.05,495,192.86,494.79,188.65Z" transform="translate(-0.58 -0.55)"/><path class="cls-4" d="M499,217.05c-.05.44-.1.87-.16,1.3l.06,1.51c.06-.3.11-.6.16-.9Z" transform="translate(-0.58 -0.55)"/><path class="cls-4" d="M505.89,204.77l0-.16c0-1.44.06-2.91.1-4.38-.2-2.06-.31-4.2-.37-6.38A63.31,63.31,0,0,0,505.89,204.77Z" transform="translate(-0.58 -0.55)"/><path class="cls-4" d="M512.26,192.73l.16-1.81-.31-.86c-.05.42-.1.85-.16,1.28Z" transform="translate(-0.58 -0.55)"/><path class="cls-4" d="M511.09,165.69c.22,8.1.43,15.7.63,23.24l.39,1.13a51.31,51.31,0,0,0,0-14.7,17,17,0,0,1-.59-3.24,115.11,115.11,0,0,0-.52-12.56c0,2,.09,3.94.13,6Z" transform="translate(-0.58 -0.55)"/></svg>